Linefont[min,min].ufo
<glyph name="neg.-1" format="2">
	<advance width="25"/>
	<outline>
		<contour>
			<point x="-11.014" y="3.714" type="line"/>
			<point x="13.986" y="-6.286" type="line"/>
			<point x="11.014" y="-13.714" type="line"/>
			<point x="-13.986" y="-3.714" type="line"/>
		</contour>
	</outline>
</glyph>
<glyph name="neg.-10" format="2">
	<advance width="25"/>
	<outline>
		<contour>
			<point x="-12.015" y="0.121" type="line"/>
			<point x="12.985" y="-99.879" type="line"/>
			<point x="12.015" y="-100.121" type="line"/>
			<point x="-12.985" y="-0.121" type="line"/>
		</contour>
	</outline>
</glyph>
<glyph name="neg.-100" format="2">
	<advance width="25"/>
	<outline>
		<contour>
			<point x="-8.501" y="0.1" type="line"/>
			<point x="16.499" y="-999.9" type="line"/>
			<point x="8.501" y="-1000.1" type="line"/>
			<point x="-16.499" y="-0.1" type="line"/>
		</contour>
	</outline>
</glyph>
<glyph name="neg.-101" format="2">
	<advance width="25"/>
	<outline>
		<contour>
			<point x="-12" y="0.012" type="line"/>
			<point x="12" y="-1009.988" type="line"/>
			<point x="12" y="-1010.012" type="line"/>
			<point x="-12" y="-0.012" type="line"/>
		</contour>
	</outline>
</glyph>
<glyph name="neg.-102" format="2">
	<advance width="25"/>
	<outline>
		<contour>
			<point x="-8.501" y="0.098" type="line"/>
			<point x="16.499" y="-1019.902" type="line"/>
			<point x="8.501" y="-1020.098" type="line"/>
			<point x="-16.499" y="-0.098" type="line"/>
		</contour>
	</outline>
</glyph>
<glyph name="neg.-103" format="2">
	<advance width="25"/>
	<outline>
		<contour>
			<point x="-12" y="0.012" type="line"/>
			<point x="12" y="-1029.988" type="line"/>
			<point x="12" y="-1030.012" type="line"/>
			<point x="-12" y="-0.012" type="line"/>
		</contour>
	</outline>
</glyph>
<glyph name="neg.-104" format="2">
	<advance width="25"/>
	<outline>
		<contour>
			<point x="-8.501" y="0.096" type="line"/>
			<point x="16.499" y="-1039.904" type="line"/>
			<point x="8.501" y="-1040.096" type="line"/>
			<point x="-16.499" y="-0.096" type="line"/>
		</contour>
	</outline>
</glyph>
<glyph name="neg.-105" format="2">
	<advance width="25"/>
	<outline>
		<contour>
			<point x="-8.501" y="0.095" type="line"/>
			<point x="16.499" y="-1049.905" type="line"/>
			<point x="8.501" y="-1050.095" type="line"/>
			<point x="-16.499" y="-0.095" type="line"/>
		</contour>
	</outline>
</glyph>
<glyph name="neg.-106" format="2">
	<advance width="25"/>
	<outline>
		<contour>
			<point x="-12" y="0.012" type="line"/>
			<point x="12" y="-1059.988" type="line"/>
			<point x="12" y="-1060.012" type="line"/>
			<point x="-12" y="-0.012" type="line"/>
		</contour>
	</outline>
</glyph>
<glyph name="neg.-108" format="2">
	<advance width="25"/>
	<outline>
		<contour>
			<point x="-12" y="0.012" type="line"/>
			<point x="12" y="-1079.988" type="line"/>
			<point x="12" y="-1080.012" type="line"/>
			<point x="-12" y="-0.012" type="line"/>
		</contour>
	</outline>
</glyph>
<glyph name="neg.-109" format="2">
	<advance width="25"/>
	<outline>
		<contour>
			<point x="-12" y="0.011" type="line"/>
			<point x="12" y="-1089.989" type="line"/>
			<point x="12" y="-1090.011" type="line"/>
			<point x="-12" y="-0.011" type="line"/>
		</contour>
	</outline>
</glyph>
<glyph name="neg.-110" format="2">
	<advance width="25"/>
	<outline>
		<contour>
			<point x="-8.501" y="0.091" type="line"/>
			<point x="16.499" y="-1099.909" type="line"/>
			<point x="8.501" y="-1100.091" type="line"/>
			<point x="-16.499" y="-0.091" type="line"/>
		</contour>
	</outline>
</glyph>
<glyph name="neg.-112" format="2">
	<advance width="25"/>
	<outline>
		<contour>
			<point x="-12" y="0.011" type="line"/>
			<point x="12" y="-1119.989" type="line"/>
			<point x="12" y="-1120.011" type="line"/>
			<point x="-12" y="-0.011" type="line"/>
		</contour>
	</outline>
</glyph>
<glyph name="neg.-114" format="2">
	<advance width="25"/>
	<outline>
		<contour>
			<point x="-12" y="0.011" type="line"/>
			<point x="12" y="-1139.989" type="line"/>
			<point x="12" y="-1140.011" type="line"/>
			<point x="-12" y="-0.011" type="line"/>
		</contour>
	</outline>
</glyph>
<glyph name="neg.-115" format="2">
	<advance width="25"/>
	<outline>
		<contour>
			<point x="-8.501" y="0.087" type="line"/>
			<point x="16.499" y="-1149.913" type="line"/>
			<point x="8.501" y="-1150.087" type="line"/>
			<point x="-16.499" y="-0.087" type="line"/>
		</contour>
	</outline>
</glyph>
<glyph name="neg.-116" format="2">
	<advance width="25"/>
	<outline>
		<contour>
			<point x="-8.501" y="0.086" type="line"/>
			<point x="16.499" y="-1159.914" type="line"/>
			<point x="8.501" y="-1160.086" type="line"/>
			<point x="-16.499" y="-0.086" type="line"/>
		</contour>
	</outline>
</glyph>
<glyph name="neg.-118" format="2">
	<advance width="25"/>
	<outline>
		<contour>
			<point x="-8.501" y="0.085" type="line"/>
			<point x="16.499" y="-1179.915" type="line"/>
			<point x="8.501" y="-1180.085" type="line"/>
			<point x="-16.499" y="-0.085" type="line"/>
		</contour>
	</outline>
</glyph>
<glyph name="neg.-119" format="2">
	<advance width="25"/>
	<outline>
		<contour>
			<point x="-10.001" y="0.053" type="line"/>
			<point x="14.999" y="-1189.947" type="line"/>
			<point x="10.001" y="-1190.053" type="line"/>
			<point x="-14.999" y="-0.053" type="line"/>
		</contour>
	</outline>
</glyph>
<glyph name="neg.-12" format="2">
	<advance width="25"/>
	<outline>
		<contour>
			<point x="-12.011" y="0.102" type="line"/>
			<point x="12.989" y="-119.898" type="line"/>
			<point x="12.011" y="-120.102" type="line"/>
			<point x="-12.989" y="-0.102" type="line"/>
		</contour>
	</outline>
</glyph>
<glyph name="neg.-121" format="2">
	<advance width="25"/>
	<outline>
		<contour>
			<point x="-12" y="0.01" type="line"/>
			<point x="12" y="-1209.99" type="line"/>
			<point x="12" y="-1210.01" type="line"/>
			<point x="-12" y="-0.01" type="line"/>
		</contour>
	</outline>
</glyph>
<glyph name="neg.-122" format="2">
	<advance width="25"/>
	<outline>
		<contour>
			<point x="-8.501" y="0.082" type="line"/>
			<point x="16.499" y="-1219.918" type="line"/>
			<point x="8.501" y="-1220.082" type="line"/>
			<point x="-16.499" y="-0.082" type="line"/>
		</contour>
	</outline>
</glyph>
<glyph name="neg.-123" format="2">
	<advance width="25"/>
	<outline>
		<contour>
			<point x="-10.001" y="0.051" type="line"/>
			<point x="14.999" y="-1229.949" type="line"/>
			<point x="10.001" y="-1230.051" type="line"/>
			<point x="-14.999" y="-0.051" type="line"/>
		</contour>
	</outline>
</glyph>
<glyph name="neg.-124" format="2">
	<advance width="25"/>
	<outline>
		<contour>
			<point x="-10.001" y="0.05" type="line"/>
			<point x="14.999" y="-1239.95" type="line"/>
			<point x="10.001" y="-1240.05" type="line"/>
			<point x="-14.999" y="-0.05" type="line"/>
		</contour>
	</outline>
</glyph>
<glyph name="neg.-126" format="2">
	<advance width="25"/>
	<outline>
		<contour>
			<point x="-8.501" y="0.079" type="line"/>
			<point x="16.499" y="-1259.921" type="line"/>
			<point x="8.501" y="-1260.079" type="line"/>
			<point x="-16.499" y="-0.079" type="line"/>
		</contour>
	</outline>
</glyph>
<glyph name="neg.-127" format="2">
	<advance width="25"/>
	<outline>
		<contour>
			<point x="-12" y="0.01" type="line"/>
			<point x="12" y="-1269.99" type="line"/>
			<point x="12" y="-1270.01" type="line"/>
			<point x="-12" y="-0.01" type="line"/>
		</contour>
	</outline>
</glyph>
<glyph name="neg.-13" format="2">
	<advance width="25"/>
	<outline>
		<contour>
			<point x="-12.009" y="0.094" type="line"/>
			<point x="12.991" y="-129.906" type="line"/>
			<point x="12.009" y="-130.094" type="line"/>
			<point x="-12.991" y="-0.094" type="line"/>
		</contour>
	</outline>
</glyph>
<glyph name="neg.-14" format="2">
	<advance width="25"/>
	<outline>
		<contour>
			<point x="-8.562" y="0.703" type="line"/>
			<point x="16.438" y="-139.297" type="line"/>
			<point x="8.562" y="-140.703" type="line"/>
			<point x="-16.438" y="-0.703" type="line"/>
		</contour>
	</outline>
</glyph>
<glyph name="neg.-15" format="2">
	<advance width="25"/>
	<outline>
		<contour>
			<point x="-12.007" y="0.082" type="line"/>
			<point x="12.993" y="-149.918" type="line"/>
			<point x="12.007" y="-150.082" type="line"/>
			<point x="-12.993" y="-0.082" type="line"/>
		</contour>
	</outline>
</glyph>
<glyph name="neg.-16" format="2">
	<advance width="25"/>
	<outline>
		<contour>
			<point x="-12.006" y="0.077" type="line"/>
			<point x="12.994" y="-159.923" type="line"/>
			<point x="12.006" y="-160.077" type="line"/>
			<point x="-12.994" y="-0.077" type="line"/>
		</contour>
	</outline>
</glyph>
<glyph name="neg.-19" format="2">
	<advance width="25"/>
	<outline>
		<contour>
			<point x="-8.534" y="0.522" type="line"/>
			<point x="16.466" y="-189.478" type="line"/>
			<point x="8.534" y="-190.522" type="line"/>
			<point x="-16.466" y="-0.522" type="line"/>
		</contour>
	</outline>
</glyph>
<glyph name="neg.-2" format="2">
	<advance width="25"/>
	<outline>
		<contour>
			<point x="-12.188" y="0.39" type="line"/>
			<point x="12.812" y="-19.61" type="line"/>
			<point x="12.188" y="-20.39" type="line"/>
			<point x="-12.812" y="-0.39" type="line"/>
		</contour>
	</outline>
</glyph>
<glyph name="neg.-20" format="2">
	<advance width="25"/>
	<outline>
		<contour>
			<point x="-8.531" y="0.496" type="line"/>
			<point x="16.469" y="-199.504" type="line"/>
			<point x="8.531" y="-200.496" type="line"/>
			<point x="-16.469" y="-0.496" type="line"/>
		</contour>
	</outline>
</glyph>
<glyph name="neg.-23" format="2">
	<advance width="25"/>
	<outline>
		<contour>
			<point x="-12.003" y="0.054" type="line"/>
			<point x="12.997" y="-229.946" type="line"/>
			<point x="12.003" y="-230.054" type="line"/>
			<point x="-12.997" y="-0.054" type="line"/>
		</contour>
	</outline>
</glyph>
<glyph name="neg.-25" format="2">
	<advance width="25"/>
	<outline>
		<contour>
			<point x="-8.52" y="0.398" type="line"/>
			<point x="16.48" y="-249.602" type="line"/>
			<point x="8.52" y="-250.398" type="line"/>
			<point x="-16.48" y="-0.398" type="line"/>
		</contour>
	</outline>
</glyph>
<glyph name="neg.-26" format="2">
	<advance width="25"/>
	<outline>
		<contour>
			<point x="-12.002" y="0.048" type="line"/>
			<point x="12.998" y="-259.952" type="line"/>
			<point x="12.002" y="-260.048" type="line"/>
			<point x="-12.998" y="-0.048" type="line"/>
		</contour>
	</outline>
</glyph>
<glyph name="neg.-27" format="2">
	<advance width="25"/>
	<outline>
		<contour>
			<point x="-10.011" y="0.23" type="line"/>
			<point x="14.989" y="-269.77" type="line"/>
			<point x="10.011" y="-270.23" type="line"/>
			<point x="-14.989" y="-0.23" type="line"/>
		</contour>
	</outline>
</glyph>
<glyph name="neg.-28" format="2">
	<advance width="25"/>
	<outline>
		<contour>
			<point x="-8.516" y="0.356" type="line"/>
			<point x="16.484" y="-279.644" type="line"/>
			<point x="8.516" y="-280.356" type="line"/>
			<point x="-16.484" y="-0.356" type="line"/>
		</contour>
	</outline>
</glyph>
<glyph name="neg.-29" format="2">
	<advance width="25"/>
	<outline>
		<contour>
			<point x="-12.002" y="0.043" type="line"/>
			<point x="12.998" y="-289.957" type="line"/>
			<point x="12.002" y="-290.043" type="line"/>
			<point x="-12.998" y="-0.043" type="line"/>
		</contour>
	</outline>
</glyph>
<glyph name="neg.-3" format="2">
	<advance width="25"/>
	<outline>
		<contour>
			<point x="-12.116" y="0.32" type="line"/>
			<point x="12.884" y="-29.68" type="line"/>
			<point x="12.116" y="-30.32" type="line"/>
			<point x="-12.884" y="-0.32" type="line"/>
		</contour>
	</outline>
</glyph>
<glyph name="neg.-30" format="2">
	<advance width="25"/>
	<outline>
		<contour>
			<point x="-12.002" y="0.042" type="line"/>
			<point x="12.998" y="-299.958" type="line"/>
			<point x="12.002" y="-300.042" type="line"/>
			<point x="-12.998" y="-0.042" type="line"/>
		</contour>
	</outline>
</glyph>
<glyph name="neg.-32" format="2">
	<advance width="25"/>
	<outline>
		<contour>
			<point x="-8.512" y="0.312" type="line"/>
			<point x="16.488" y="-319.688" type="line"/>
			<point x="8.512" y="-320.312" type="line"/>
			<point x="-16.488" y="-0.312" type="line"/>
		</contour>
	</outline>
</glyph>
<glyph name="neg.-33" format="2">
	<advance width="25"/>
	<outline>
		<contour>
			<point x="-8.511" y="0.302" type="line"/>
			<point x="16.489" y="-329.698" type="line"/>
			<point x="8.511" y="-330.302" type="line"/>
			<point x="-16.489" y="-0.302" type="line"/>
		</contour>
	</outline>
</glyph>
<glyph name="neg.-34" format="2">
	<advance width="25"/>
	<outline>
		<contour>
			<point x="-8.511" y="0.293" type="line"/>
			<point x="16.489" y="-339.707" type="line"/>
			<point x="8.511" y="-340.293" type="line"/>
			<point x="-16.489" y="-0.293" type="line"/>
		</contour>
	</outline>
</glyph>
<glyph name="neg.-36" format="2">
	<advance width="25"/>
	<outline>
		<contour>
			<point x="-8.51" y="0.277" type="line"/>
			<point x="16.49" y="-359.723" type="line"/>
			<point x="8.51" y="-360.277" type="line"/>
			<point x="-16.49" y="-0.277" type="line"/>
		</contour>
	</outline>
</glyph>
<glyph name="neg.-39" format="2">
	<advance width="25"/>
	<outline>
		<contour>
			<point x="-12.001" y="0.032" type="line"/>
			<point x="12.999" y="-389.968" type="line"/>
			<point x="12.001" y="-390.032" type="line"/>
			<point x="-12.999" y="-0.032" type="line"/>
		</contour>
	</outline>
</glyph>
<glyph name="neg.-4" format="2">
	<advance width="25"/>
	<outline>
		<contour>
			<point x="-12.076" y="0.265" type="line"/>
			<point x="12.924" y="-39.735" type="line"/>
			<point x="12.076" y="-40.265" type="line"/>
			<point x="-12.924" y="-0.265" type="line"/>
		</contour>
	</outline>
</glyph>
<glyph name="neg.-40" format="2">
	<advance width="25"/>
	<outline>
		<contour>
			<point x="-8.508" y="0.25" type="line"/>
			<point x="16.492" y="-399.75" type="line"/>
			<point x="8.508" y="-400.25" type="line"/>
			<point x="-16.492" y="-0.25" type="line"/>
		</contour>
	</outline>
</glyph>
<glyph name="neg.-41" format="2">
	<advance width="25"/>
	<outline>
		<contour>
			<point x="-10.005" y="0.152" type="line"/>
			<point x="14.995" y="-409.848" type="line"/>
			<point x="10.005" y="-410.152" type="line"/>
			<point x="-14.995" y="-0.152" type="line"/>
		</contour>
	</outline>
</glyph>
<glyph name="neg.-44" format="2">
	<advance width="25"/>
	<outline>
		<contour>
			<point x="-8.506" y="0.227" type="line"/>
			<point x="16.494" y="-439.773" type="line"/>
			<point x="8.506" y="-440.227" type="line"/>
			<point x="-16.494" y="-0.227" type="line"/>
		</contour>
	</outline>
</glyph>
<glyph name="neg.-47" format="2">
	<advance width="25"/>
	<outline>
		<contour>
			<point x="-8.506" y="0.212" type="line"/>
			<point x="16.494" y="-469.788" type="line"/>
			<point x="8.506" y="-470.212" type="line"/>
			<point x="-16.494" y="-0.212" type="line"/>
		</contour>
	</outline>
</glyph>
<glyph name="neg.-49" format="2">
	<advance width="25"/>
	<outline>
		<contour>
			<point x="-8.505" y="0.204" type="line"/>
			<point x="16.495" y="-489.796" type="line"/>
			<point x="8.505" y="-490.204" type="line"/>
			<point x="-16.495" y="-0.204" type="line"/>
		</contour>
	</outline>
</glyph>
<glyph name="neg.-50" format="2">
	<advance width="25"/>
	<outline>
		<contour>
			<point x="-8.505" y="0.2" type="line"/>
			<point x="16.495" y="-499.8" type="line"/>
			<point x="8.505" y="-500.2" type="line"/>
			<point x="-16.495" y="-0.2" type="line"/>
		</contour>
	</outline>
</glyph>
<glyph name="neg.-51" format="2">
	<advance width="25"/>
	<outline>
		<contour>
			<point x="-12.001" y="0.024" type="line"/>
			<point x="12.999" y="-509.976" type="line"/>
			<point x="12.001" y="-510.024" type="line"/>
			<point x="-12.999" y="-0.024" type="line"/>
		</contour>
	</outline>
</glyph>
<glyph name="neg.-52" format="2">
	<advance width="25"/>
	<outline>
		<contour>
			<point x="-8.505" y="0.192" type="line"/>
			<point x="16.495" y="-519.808" type="line"/>
			<point x="8.505" y="-520.192" type="line"/>
			<point x="-16.495" y="-0.192" type="line"/>
		</contour>
	</outline>
</glyph>
<glyph name="neg.-53" format="2">
	<advance width="25"/>
	<outline>
		<contour>
			<point x="-12.001" y="0.024" type="line"/>
			<point x="12.999" y="-529.976" type="line"/>
			<point x="12.001" y="-530.024" type="line"/>
			<point x="-12.999" y="-0.024" type="line"/>
		</contour>
	</outline>
</glyph>
<glyph name="neg.-54" format="2">
	<advance width="25"/>
	<outline>
		<contour>
			<point x="-12.001" y="0.023" type="line"/>
			<point x="12.999" y="-539.977" type="line"/>
			<point x="12.001" y="-540.023" type="line"/>
			<point x="-12.999" y="-0.023" type="line"/>
		</contour>
	</outline>
</glyph>
<glyph name="neg.-55" format="2">
	<advance width="25"/>
	<outline>
		<contour>
			<point x="-8.504" y="0.182" type="line"/>
			<point x="16.496" y="-549.818" type="line"/>
			<point x="8.504" y="-550.182" type="line"/>
			<point x="-16.496" y="-0.182" type="line"/>
		</contour>
	</outline>
</glyph>
<glyph name="neg.-56" format="2">
	<advance width="25"/>
	<outline>
		<contour>
			<point x="-8.504" y="0.178" type="line"/>
			<point x="16.496" y="-559.822" type="line"/>
			<point x="8.504" y="-560.178" type="line"/>
			<point x="-16.496" y="-0.178" type="line"/>
		</contour>
	</outline>
</glyph>
<glyph name="neg.-57" format="2">
	<advance width="25"/>
	<outline>
		<contour>
			<point x="-8.504" y="0.175" type="line"/>
			<point x="16.496" y="-569.825" type="line"/>
			<point x="8.504" y="-570.175" type="line"/>
			<point x="-16.496" y="-0.175" type="line"/>
		</contour>
	</outline>
</glyph>
<glyph name="neg.-58" format="2">
	<advance width="25"/>
	<outline>
		<contour>
			<point x="-12" y="0.022" type="line"/>
			<point x="12" y="-579.978" type="line"/>
			<point x="12" y="-580.022" type="line"/>
			<point x="-12" y="-0.022" type="line"/>
		</contour>
	</outline>
</glyph>
<glyph name="neg.-6" format="2">
	<advance width="25"/>
	<outline>
		<contour>
			<point x="-8.808" y="1.538" type="line"/>
			<point x="16.192" y="-58.462" type="line"/>
			<point x="8.808" y="-61.538" type="line"/>
			<point x="-16.192" y="-1.538" type="line"/>
		</contour>
	</outline>
</glyph>
<glyph name="neg.-61" format="2">
	<advance width="25"/>
	<outline>
		<contour>
			<point x="-8.503" y="0.164" type="line"/>
			<point x="16.497" y="-609.836" type="line"/>
			<point x="8.503" y="-610.164" type="line"/>
			<point x="-16.497" y="-0.164" type="line"/>
		</contour>
	</outline>
</glyph>
<glyph name="neg.-62" format="2">
	<advance width="25"/>
	<outline>
		<contour>
			<point x="-12" y="0.02" type="line"/>
			<point x="12" y="-619.98" type="line"/>
			<point x="12" y="-620.02" type="line"/>
			<point x="-12" y="-0.02" type="line"/>
		</contour>
	</outline>
</glyph>
<glyph name="neg.-64" format="2">
	<advance width="25"/>
	<outline>
		<contour>
			<point x="-8.503" y="0.156" type="line"/>
			<point x="16.497" y="-639.844" type="line"/>
			<point x="8.503" y="-640.156" type="line"/>
			<point x="-16.497" y="-0.156" type="line"/>
		</contour>
	</outline>
</glyph>
<glyph name="neg.-65" format="2">
	<advance width="25"/>
	<outline>
		<contour>
			<point x="-8.503" y="0.154" type="line"/>
			<point x="16.497" y="-649.846" type="line"/>
			<point x="8.503" y="-650.154" type="line"/>
			<point x="-16.497" y="-0.154" type="line"/>
		</contour>
	</outline>
</glyph>
<glyph name="neg.-66" format="2">
	<advance width="25"/>
	<outline>
		<contour>
			<point x="-8.503" y="0.151" type="line"/>
			<point x="16.497" y="-659.849" type="line"/>
			<point x="8.503" y="-660.151" type="line"/>
			<point x="-16.497" y="-0.151" type="line"/>
		</contour>
	</outline>
</glyph>
<glyph name="neg.-67" format="2">
	<advance width="25"/>
	<outline>
		<contour>
			<point x="-12" y="0.019" type="line"/>
			<point x="12" y="-669.981" type="line"/>
			<point x="12" y="-670.019" type="line"/>
			<point x="-12" y="-0.019" type="line"/>
		</contour>
	</outline>
</glyph>
<glyph name="neg.-68" format="2">
	<advance width="25"/>
	<outline>
		<contour>
			<point x="-8.503" y="0.147" type="line"/>
			<point x="16.497" y="-679.853" type="line"/>
			<point x="8.503" y="-680.147" type="line"/>
			<point x="-16.497" y="-0.147" type="line"/>
		</contour>
	</outline>
</glyph>
<glyph name="neg.-69" format="2">
	<advance width="25"/>
	<outline>
		<contour>
			<point x="-8.503" y="0.145" type="line"/>
			<point x="16.497" y="-689.855" type="line"/>
			<point x="8.503" y="-690.145" type="line"/>
			<point x="-16.497" y="-0.145" type="line"/>
		</contour>
	</outline>
</glyph>
<glyph name="neg.-7" format="2">
	<advance width="25"/>
	<outline>
		<contour>
			<point x="-12.029" y="0.168" type="line"/>
			<point x="12.971" y="-69.832" type="line"/>
			<point x="12.029" y="-70.168" type="line"/>
			<point x="-12.971" y="-0.168" type="line"/>
		</contour>
	</outline>
</glyph>
<glyph name="neg.-70" format="2">
	<advance width="25"/>
	<outline>
		<contour>
			<point x="-10.002" y="0.089" type="line"/>
			<point x="14.998" y="-699.911" type="line"/>
			<point x="10.002" y="-700.089" type="line"/>
			<point x="-14.998" y="-0.089" type="line"/>
		</contour>
	</outline>
</glyph>
<glyph name="neg.-71" format="2">
	<advance width="25"/>
	<outline>
		<contour>
			<point x="-8.502" y="0.141" type="line"/>
			<point x="16.498" y="-709.859" type="line"/>
			<point x="8.502" y="-710.141" type="line"/>
			<point x="-16.498" y="-0.141" type="line"/>
		</contour>
	</outline>
</glyph>
<glyph name="neg.-72" format="2">
	<advance width="25"/>
	<outline>
		<contour>
			<point x="-8.502" y="0.139" type="line"/>
			<point x="16.498" y="-719.861" type="line"/>
			<point x="8.502" y="-720.139" type="line"/>
			<point x="-16.498" y="-0.139" type="line"/>
		</contour>
	</outline>
</glyph>
<glyph name="neg.-74" format="2">
	<advance width="25"/>
	<outline>
		<contour>
			<point x="-8.502" y="0.135" type="line"/>
			<point x="16.498" y="-739.865" type="line"/>
			<point x="8.502" y="-740.135" type="line"/>
			<point x="-16.498" y="-0.135" type="line"/>
		</contour>
	</outline>
</glyph>
<glyph name="neg.-75" format="2">
	<advance width="25"/>
	<outline>
		<contour>
			<point x="-8.502" y="0.133" type="line"/>
			<point x="16.498" y="-749.867" type="line"/>
			<point x="8.502" y="-750.133" type="line"/>
			<point x="-16.498" y="-0.133" type="line"/>
		</contour>
	</outline>
</glyph>
<glyph name="neg.-76" format="2">
	<advance width="25"/>
	<outline>
		<contour>
			<point x="-10.001" y="0.082" type="line"/>
			<point x="14.999" y="-759.918" type="line"/>
			<point x="10.001" y="-760.082" type="line"/>
			<point x="-14.999" y="-0.082" type="line"/>
		</contour>
	</outline>
</glyph>
<glyph name="neg.-78" format="2">
	<advance width="25"/>
	<outline>
		<contour>
			<point x="-12" y="0.016" type="line"/>
			<point x="12" y="-779.984" type="line"/>
			<point x="12" y="-780.016" type="line"/>
			<point x="-12" y="-0.016" type="line"/>
		</contour>
	</outline>
</glyph>
<glyph name="neg.-79" format="2">
	<advance width="25"/>
	<outline>
		<contour>
			<point x="-12" y="0.016" type="line"/>
			<point x="12" y="-789.984" type="line"/>
			<point x="12" y="-790.016" type="line"/>
			<point x="-12" y="-0.016" type="line"/>
		</contour>
	</outline>
</glyph>
<glyph name="neg.-8" format="2">
	<advance width="25"/>
	<outline>
		<contour>
			<point x="-12.023" y="0.149" type="line"/>
			<point x="12.977" y="-79.851" type="line"/>
			<point x="12.023" y="-80.149" type="line"/>
			<point x="-12.977" y="-0.149" type="line"/>
		</contour>
	</outline>
</glyph>
<glyph name="neg.-81" format="2">
	<advance width="25"/>
	<outline>
		<contour>
			<point x="-10.001" y="0.077" type="line"/>
			<point x="14.999" y="-809.923" type="line"/>
			<point x="10.001" y="-810.077" type="line"/>
			<point x="-14.999" y="-0.077" type="line"/>
		</contour>
	</outline>
</glyph>
<glyph name="neg.-82" format="2">
	<advance width="25"/>
	<outline>
		<contour>
			<point x="-12" y="0.015" type="line"/>
			<point x="12" y="-819.985" type="line"/>
			<point x="12" y="-820.015" type="line"/>
			<point x="-12" y="-0.015" type="line"/>
		</contour>
	</outline>
</glyph>
<glyph name="neg.-83" format="2">
	<advance width="25"/>
	<outline>
		<contour>
			<point x="-8.502" y="0.12" type="line"/>
			<point x="16.498" y="-829.88" type="line"/>
			<point x="8.502" y="-830.12" type="line"/>
			<point x="-16.498" y="-0.12" type="line"/>
		</contour>
	</outline>
</glyph>
<glyph name="neg.-84" format="2">
	<advance width="25"/>
	<outline>
		<contour>
			<point x="-12" y="0.015" type="line"/>
			<point x="12" y="-839.985" type="line"/>
			<point x="12" y="-840.015" type="line"/>
			<point x="-12" y="-0.015" type="line"/>
		</contour>
	</outline>
</glyph>
<glyph name="neg.-85" format="2">
	<advance width="25"/>
	<outline>
		<contour>
			<point x="-8.502" y="0.118" type="line"/>
			<point x="16.498" y="-849.882" type="line"/>
			<point x="8.502" y="-850.118" type="line"/>
			<point x="-16.498" y="-0.118" type="line"/>
		</contour>
	</outline>
</glyph>
<glyph name="neg.-86" format="2">
	<advance width="25"/>
	<outline>
		<contour>
			<point x="-12" y="0.015" type="line"/>
			<point x="12" y="-859.985" type="line"/>
			<point x="12" y="-860.015" type="line"/>
			<point x="-12" y="-0.015" type="line"/>
		</contour>
	</outline>
</glyph>
<glyph name="neg.-87" format="2">
	<advance width="25"/>
	<outline>
		<contour>
			<point x="-12" y="0.014" type="line"/>
			<point x="12" y="-869.986" type="line"/>
			<point x="12" y="-870.014" type="line"/>
			<point x="-12" y="-0.014" type="line"/>
		</contour>
	</outline>
</glyph>
<glyph name="neg.-88" format="2">
	<advance width="25"/>
	<outline>
		<contour>
			<point x="-12" y="0.014" type="line"/>
			<point x="12" y="-879.986" type="line"/>
			<point x="12" y="-880.014" type="line"/>
			<point x="-12" y="-0.014" type="line"/>
		</contour>
	</outline>
</glyph>
<glyph name="neg.-89" format="2">
	<advance width="25"/>
	<outline>
		<contour>
			<point x="-8.502" y="0.112" type="line"/>
			<point x="16.498" y="-889.888" type="line"/>
			<point x="8.502" y="-890.112" type="line"/>
			<point x="-16.498" y="-0.112" type="line"/>
		</contour>
	</outline>
</glyph>
<glyph name="neg.-9" format="2">
	<advance width="25"/>
	<outline>
		<contour>
			<point x="-8.646" y="1.071" type="line"/>
			<point x="16.354" y="-88.929" type="line"/>
			<point x="8.646" y="-91.071" type="line"/>
			<point x="-16.354" y="-1.071" type="line"/>
		</contour>
	</outline>
</glyph>
<glyph name="neg.-91" format="2">
	<advance width="25"/>
	<outline>
		<contour>
			<point x="-10.001" y="0.069" type="line"/>
			<point x="14.999" y="-909.931" type="line"/>
			<point x="10.001" y="-910.069" type="line"/>
			<point x="-14.999" y="-0.069" type="line"/>
		</contour>
	</outline>
</glyph>
<glyph name="neg.-92" format="2">
	<advance width="25"/>
	<outline>
		<contour>
			<point x="-8.501" y="0.109" type="line"/>
			<point x="16.499" y="-919.891" type="line"/>
			<point x="8.501" y="-920.109" type="line"/>
			<point x="-16.499" y="-0.109" type="line"/>
		</contour>
	</outline>
</glyph>
<glyph name="neg.-93" format="2">
	<advance width="25"/>
	<outline>
		<contour>
			<point x="-8.501" y="0.107" type="line"/>
			<point x="16.499" y="-929.893" type="line"/>
			<point x="8.501" y="-930.107" type="line"/>
			<point x="-16.499" y="-0.107" type="line"/>
		</contour>
	</outline>
</glyph>
<glyph name="neg.-94" format="2">
	<advance width="25"/>
	<outline>
		<contour>
			<point x="-8.501" y="0.106" type="line"/>
			<point x="16.499" y="-939.894" type="line"/>
			<point x="8.501" y="-940.106" type="line"/>
			<point x="-16.499" y="-0.106" type="line"/>
		</contour>
	</outline>
</glyph>
<glyph name="neg.-96" format="2">
	<advance width="25"/>
	<outline>
		<contour>
			<point x="-8.501" y="0.104" type="line"/>
			<point x="16.499" y="-959.896" type="line"/>
			<point x="8.501" y="-960.104" type="line"/>
			<point x="-16.499" y="-0.104" type="line"/>
		</contour>
	</outline>
</glyph>
<glyph name="neg.-97" format="2">
	<advance width="25"/>
	<outline>
		<contour>
			<point x="-10.001" y="0.064" type="line"/>
			<point x="14.999" y="-969.936" type="line"/>
			<point x="10.001" y="-970.064" type="line"/>
			<point x="-14.999" y="-0.064" type="line"/>
		</contour>
	</outline>
</glyph>
<glyph name="neg.-98" format="2">
	<advance width="25"/>
	<outline>
		<contour>
			<point x="-8.501" y="0.102" type="line"/>
			<point x="16.499" y="-979.898" type="line"/>
			<point x="8.501" y="-980.102" type="line"/>
			<point x="-16.499" y="-0.102" type="line"/>
		</contour>
	</outline>
</glyph>
<glyph name="neg.-99" format="2">
	<advance width="25"/>
	<outline>
		<contour>
			<point x="-8.501" y="0.101" type="line"/>
			<point x="16.499" y="-989.899" type="line"/>
			<point x="8.501" y="-990.101" type="line"/>
			<point x="-16.499" y="-0.101" type="line"/>
		</contour>
	</outline>
</glyph>
<glyph name="point" format="2">
	<outline>
		<contour>
			<point x="-4" y="-2.2"/>
			<point x="-4" y="0" type="curve" smooth="yes"/>
			<point x="-4" y="2.2"/>
			<point x="-2.2" y="4"/>
			<point x="0" y="4" type="curve" smooth="yes"/>
			<point x="2.2" y="4"/>
			<point x="4" y="2.2"/>
			<point x="4" y="0" type="curve" smooth="yes"/>
			<point x="4" y="-2.2"/>
			<point x="2.2" y="-4"/>
			<point x="0" y="-4" type="curve" smooth="yes"/>
			<point x="-2.2" y="-4"/>
		</contour>
	</outline>
</glyph>
<glyph name="pos.10" format="2">
	<advance width="25"/>
	<outline>
		<contour>
			<point x="-16.381" y="0.97" type="line"/>
			<point x="8.619" y="100.97" type="line"/>
			<point x="16.381" y="99.03" type="line"/>
			<point x="-8.619" y="-0.97" type="line"/>
		</contour>
	</outline>
</glyph>
<glyph name="pos.101" format="2">
	<advance width="25"/>
	<outline>
		<contour>
			<point x="-14.999" y="0.062" type="line"/>
			<point x="10.001" y="1010.062" type="line"/>
			<point x="14.999" y="1009.938" type="line"/>
			<point x="-10.001" y="-0.062" type="line"/>
		</contour>
	</outline>
</glyph>
<glyph name="pos.103" format="2">
	<advance width="25"/>
	<outline>
		<contour>
			<point x="-16.499" y="0.097" type="line"/>
			<point x="8.501" y="1030.097" type="line"/>
			<point x="16.499" y="1029.903" type="line"/>
			<point x="-8.501" y="-0.097" type="line"/>
		</contour>
	</outline>
</glyph>
<glyph name="pos.105" format="2">
	<advance width="25"/>
	<outline>
		<contour>
			<point x="-12" y="0.012" type="line"/>
			<point x="12" y="1050.012" type="line"/>
			<point x="12" y="1049.988" type="line"/>
			<point x="-12" y="-0.012" type="line"/>
		</contour>
	</outline>
</glyph>
<glyph name="pos.106" format="2">
	<advance width="25"/>
	<outline>
		<contour>
			<point x="-16.499" y="0.094" type="line"/>
			<point x="8.501" y="1060.094" type="line"/>
			<point x="16.499" y="1059.906" type="line"/>
			<point x="-8.501" y="-0.094" type="line"/>
		</contour>
	</outline>
</glyph>
<glyph name="pos.107" format="2">
	<advance width="25"/>
	<outline>
		<contour>
			<point x="-12" y="0.012" type="line"/>
			<point x="12" y="1070.012" type="line"/>
			<point x="12" y="1069.988" type="line"/>
			<point x="-12" y="-0.012" type="line"/>
		</contour>
	</outline>
</glyph>
<glyph name="pos.108" format="2">
	<advance width="25"/>
	<outline>
		<contour>
			<point x="-16.499" y="0.093" type="line"/>
			<point x="8.501" y="1080.093" type="line"/>
			<point x="16.499" y="1079.907" type="line"/>
			<point x="-8.501" y="-0.093" type="line"/>
		</contour>
	</outline>
</glyph>
<glyph name="pos.11" format="2">
	<advance width="25"/>
	<outline>
		<contour>
			<point x="-16.401" y="0.886" type="line"/>
			<point x="8.599" y="110.886" type="line"/>
			<point x="16.401" y="109.114" type="line"/>
			<point x="-8.599" y="-0.886" type="line"/>
		</contour>
	</outline>
</glyph>
<glyph name="pos.111" format="2">
	<advance width="25"/>
	<outline>
		<contour>
			<point x="-12" y="0.011" type="line"/>
			<point x="12" y="1110.011" type="line"/>
			<point x="12" y="1109.989" type="line"/>
			<point x="-12" y="-0.011" type="line"/>
		</contour>
	</outline>
</glyph>
<glyph name="pos.113" format="2">
	<advance width="25"/>
	<outline>
		<contour>
			<point x="-16.499" y="0.088" type="line"/>
			<point x="8.501" y="1130.088" type="line"/>
			<point x="16.499" y="1129.912" type="line"/>
			<point x="-8.501" y="-0.088" type="line"/>
		</contour>
	</outline>
</glyph>
<glyph name="pos.114" format="2">
	<advance width="25"/>
	<outline>
		<contour>
			<point x="-14.999" y="0.055" type="line"/>
			<point x="10.001" y="1140.055" type="line"/>
			<point x="14.999" y="1139.945" type="line"/>
			<point x="-10.001" y="-0.055" type="line"/>
		</contour>
	</outline>
</glyph>
<glyph name="pos.115" format="2">
	<advance width="25"/>
	<outline>
		<contour>
			<point x="-12" y="0.011" type="line"/>
			<point x="12" y="1150.011" type="line"/>
			<point x="12" y="1149.989" type="line"/>
			<point x="-12" y="-0.011" type="line"/>
		</contour>
	</outline>
</glyph>
<glyph name="pos.116" format="2">
	<advance width="25"/>
	<outline>
		<contour>
			<point x="-12" y="0.011" type="line"/>
			<point x="12" y="1160.011" type="line"/>
			<point x="12" y="1159.989" type="line"/>
			<point x="-12" y="-0.011" type="line"/>
		</contour>
	</outline>
</glyph>
<glyph name="pos.117" format="2">
	<advance width="25"/>
	<outline>
		<contour>
			<point x="-16.499" y="0.085" type="line"/>
			<point x="8.501" y="1170.085" type="line"/>
			<point x="16.499" y="1169.915" type="line"/>
			<point x="-8.501" y="-0.085" type="line"/>
		</contour>
	</outline>
</glyph>
<glyph name="pos.119" format="2">
	<advance width="25"/>
	<outline>
		<contour>
			<point x="-12" y="0.011" type="line"/>
			<point x="12" y="1190.011" type="line"/>
			<point x="12" y="1189.989" type="line"/>
			<point x="-12" y="-0.011" type="line"/>
		</contour>
	</outline>
</glyph>
<glyph name="pos.12" format="2">
	<advance width="25"/>
	<outline>
		<contour>
			<point x="-16.416" y="0.816" type="line"/>
			<point x="8.584" y="120.816" type="line"/>
			<point x="16.416" y="119.184" type="line"/>
			<point x="-8.584" y="-0.816" type="line"/>
		</contour>
	</outline>
</glyph>
<glyph name="pos.120" format="2">
	<advance width="25"/>
	<outline>
		<contour>
			<point x="-16.499" y="0.083" type="line"/>
			<point x="8.501" y="1200.083" type="line"/>
			<point x="16.499" y="1199.917" type="line"/>
			<point x="-8.501" y="-0.083" type="line"/>
		</contour>
	</outline>
</glyph>
<glyph name="pos.121" format="2">
	<advance width="25"/>
	<outline>
		<contour>
			<point x="-14.999" y="0.052" type="line"/>
			<point x="10.001" y="1210.052" type="line"/>
			<point x="14.999" y="1209.948" type="line"/>
			<point x="-10.001" y="-0.052" type="line"/>
		</contour>
	</outline>
</glyph>
<glyph name="pos.122" format="2">
	<advance width="25"/>
	<outline>
		<contour>
			<point x="-14.999" y="0.051" type="line"/>
			<point x="10.001" y="1220.051" type="line"/>
			<point x="14.999" y="1219.949" type="line"/>
			<point x="-10.001" y="-0.051" type="line"/>
		</contour>
	</outline>
</glyph>
<glyph name="pos.123" format="2">
	<advance width="25"/>
	<outline>
		<contour>
			<point x="-16.499" y="0.081" type="line"/>
			<point x="8.501" y="1230.081" type="line"/>
			<point x="16.499" y="1229.919" type="line"/>
			<point x="-8.501" y="-0.081" type="line"/>
		</contour>
	</outline>
</glyph>
<glyph name="pos.124" format="2">
	<advance width="25"/>
	<outline>
		<contour>
			<point x="-12" y="0.01" type="line"/>
			<point x="12" y="1240.01" type="line"/>
			<point x="12" y="1239.99" type="line"/>
			<point x="-12" y="-0.01" type="line"/>
		</contour>
	</outline>
</glyph>
<glyph name="pos.126" format="2">
	<advance width="25"/>
	<outline>
		<contour>
			<point x="-12" y="0.01" type="line"/>
			<point x="12" y="1260.01" type="line"/>
			<point x="12" y="1259.99" type="line"/>
			<point x="-12" y="-0.01" type="line"/>
		</contour>
	</outline>
</glyph>
<glyph name="pos.13" format="2">
	<advance width="25"/>
	<outline>
		<contour>
			<point x="-16.428" y="0.755" type="line"/>
			<point x="8.572" y="130.755" type="line"/>
			<point x="16.428" y="129.245" type="line"/>
			<point x="-8.572" y="-0.755" type="line"/>
		</contour>
	</outline>
</glyph>
<glyph name="pos.14" format="2">
	<advance width="25"/>
	<outline>
		<contour>
			<point x="-12.992" y="0.088" type="line"/>
			<point x="12.008" y="140.088" type="line"/>
			<point x="12.992" y="139.912" type="line"/>
			<point x="-12.008" y="-0.088" type="line"/>
		</contour>
	</outline>
</glyph>
<glyph name="pos.15" format="2">
	<advance width="25"/>
	<outline>
		<contour>
			<point x="-16.446" y="0.658" type="line"/>
			<point x="8.554" y="150.658" type="line"/>
			<point x="16.446" y="149.342" type="line"/>
			<point x="-8.554" y="-0.658" type="line"/>
		</contour>
	</outline>
</glyph>
<glyph name="pos.16" format="2">
	<advance width="25"/>
	<outline>
		<contour>
			<point x="-16.452" y="0.618" type="line"/>
			<point x="8.548" y="160.618" type="line"/>
			<point x="16.452" y="159.382" type="line"/>
			<point x="-8.548" y="-0.618" type="line"/>
		</contour>
	</outline>
</glyph>
<glyph name="pos.17" format="2">
	<advance width="25"/>
	<outline>
		<contour>
			<point x="-12.995" y="0.073" type="line"/>
			<point x="12.005" y="170.073" type="line"/>
			<point x="12.995" y="169.927" type="line"/>
			<point x="-12.005" y="-0.073" type="line"/>
		</contour>
	</outline>
</glyph>
<glyph name="pos.18" format="2">
	<advance width="25"/>
	<outline>
		<contour>
			<point x="-12.995" y="0.069" type="line"/>
			<point x="12.005" y="180.069" type="line"/>
			<point x="12.995" y="179.931" type="line"/>
			<point x="-12.005" y="-0.069" type="line"/>
		</contour>
	</outline>
</glyph>
<glyph name="pos.19" format="2">
	<advance width="25"/>
	<outline>
		<contour>
			<point x="-14.979" y="0.326" type="line"/>
			<point x="10.021" y="190.326" type="line"/>
			<point x="14.979" y="189.674" type="line"/>
			<point x="-10.021" y="-0.326" type="line"/>
		</contour>
	</outline>
</glyph>
<glyph name="pos.20" format="2">
	<advance width="25"/>
	<outline>
		<contour>
			<point x="-12.996" y="0.062" type="line"/>
			<point x="12.004" y="200.062" type="line"/>
			<point x="12.996" y="199.938" type="line"/>
			<point x="-12.004" y="-0.062" type="line"/>
		</contour>
	</outline>
</glyph>
<glyph name="pos.21" format="2">
	<advance width="25"/>
	<outline>
		<contour>
			<point x="-12.996" y="0.059" type="line"/>
			<point x="12.004" y="210.059" type="line"/>
			<point x="12.996" y="209.941" type="line"/>
			<point x="-12.004" y="-0.059" type="line"/>
		</contour>
	</outline>
</glyph>
<glyph name="pos.22" format="2">
	<advance width="25"/>
	<outline>
		<contour>
			<point x="-12.997" y="0.056" type="line"/>
			<point x="12.003" y="220.056" type="line"/>
			<point x="12.997" y="219.944" type="line"/>
			<point x="-12.003" y="-0.056" type="line"/>
		</contour>
	</outline>
</glyph>
<glyph name="pos.23" format="2">
	<advance width="25"/>
	<outline>
		<contour>
			<point x="-16.477" y="0.432" type="line"/>
			<point x="8.523" y="230.432" type="line"/>
			<point x="16.477" y="229.568" type="line"/>
			<point x="-8.523" y="-0.432" type="line"/>
		</contour>
	</outline>
</glyph>
<glyph name="pos.24" format="2">
	<advance width="25"/>
	<outline>
		<contour>
			<point x="-12.997" y="0.052" type="line"/>
			<point x="12.003" y="240.052" type="line"/>
			<point x="12.997" y="239.948" type="line"/>
			<point x="-12.003" y="-0.052" type="line"/>
		</contour>
	</outline>
</glyph>
<glyph name="pos.25" format="2">
	<advance width="25"/>
	<outline>
		<contour>
			<point x="-12.998" y="0.05" type="line"/>
			<point x="12.002" y="250.05" type="line"/>
			<point x="12.998" y="249.95" type="line"/>
			<point x="-12.002" y="-0.05" type="line"/>
		</contour>
	</outline>
</glyph>
<glyph name="pos.26" format="2">
	<advance width="25"/>
	<outline>
		<contour>
			<point x="-14.989" y="0.239" type="line"/>
			<point x="10.011" y="260.239" type="line"/>
			<point x="14.989" y="259.761" type="line"/>
			<point x="-10.011" y="-0.239" type="line"/>
		</contour>
	</outline>
</glyph>
<glyph name="pos.27" format="2">
	<advance width="25"/>
	<outline>
		<contour>
			<point x="-16.483" y="0.369" type="line"/>
			<point x="8.517" y="270.369" type="line"/>
			<point x="16.483" y="269.631" type="line"/>
			<point x="-8.517" y="-0.369" type="line"/>
		</contour>
	</outline>
</glyph>
<glyph name="pos.28" format="2">
	<advance width="25"/>
	<outline>
		<contour>
			<point x="-12.998" y="0.044" type="line"/>
			<point x="12.002" y="280.044" type="line"/>
			<point x="12.998" y="279.956" type="line"/>
			<point x="-12.002" y="-0.044" type="line"/>
		</contour>
	</outline>
</glyph>
<glyph name="pos.3" format="2">
	<advance width="25"/>
	<outline>
		<contour>
			<point x="-15.573" y="2.561" type="line"/>
			<point x="9.427" y="32.561" type="line"/>
			<point x="15.573" y="27.439" type="line"/>
			<point x="-9.427" y="-2.561" type="line"/>
		</contour>
	</outline>
</glyph>
<glyph name="pos.30" format="2">
	<advance width="25"/>
	<outline>
		<contour>
			<point x="-16.486" y="0.332" type="line"/>
			<point x="8.514" y="300.332" type="line"/>
			<point x="16.486" y="299.668" type="line"/>
			<point x="-8.514" y="-0.332" type="line"/>
		</contour>
	</outline>
</glyph>
<glyph name="pos.31" format="2">
	<advance width="25"/>
	<outline>
		<contour>
			<point x="-16.487" y="0.322" type="line"/>
			<point x="8.513" y="310.322" type="line"/>
			<point x="16.487" y="309.678" type="line"/>
			<point x="-8.513" y="-0.322" type="line"/>
		</contour>
	</outline>
</glyph>
<glyph name="pos.32" format="2">
	<advance width="25"/>
	<outline>
		<contour>
			<point x="-12.998" y="0.039" type="line"/>
			<point x="12.002" y="320.039" type="line"/>
			<point x="12.998" y="319.961" type="line"/>
			<point x="-12.002" y="-0.039" type="line"/>
		</contour>
	</outline>
</glyph>
<glyph name="pos.35" format="2">
	<advance width="25"/>
	<outline>
		<contour>
			<point x="-16.49" y="0.285" type="line"/>
			<point x="8.51" y="350.285" type="line"/>
			<point x="16.49" y="349.715" type="line"/>
			<point x="-8.51" y="-0.285" type="line"/>
		</contour>
	</outline>
</glyph>
<glyph name="pos.37" format="2">
	<advance width="25"/>
	<outline>
		<contour>
			<point x="-12.999" y="0.034" type="line"/>
			<point x="12.001" y="370.034" type="line"/>
			<point x="12.999" y="369.966" type="line"/>
			<point x="-12.001" y="-0.034" type="line"/>
		</contour>
	</outline>
</glyph>
<glyph name="pos.38" format="2">
	<advance width="25"/>
	<outline>
		<contour>
			<point x="-12.999" y="0.033" type="line"/>
			<point x="12.001" y="380.033" type="line"/>
			<point x="12.999" y="379.967" type="line"/>
			<point x="-12.001" y="-0.033" type="line"/>
		</contour>
	</outline>
</glyph>
<glyph name="pos.39" format="2">
	<advance width="25"/>
	<outline>
		<contour>
			<point x="-14.995" y="0.16" type="line"/>
			<point x="10.005" y="390.16" type="line"/>
			<point x="14.995" y="389.84" type="line"/>
			<point x="-10.005" y="-0.16" type="line"/>
		</contour>
	</outline>
</glyph>
<glyph name="pos.4" format="2">
	<advance width="25"/>
	<outline>
		<contour>
			<point x="-15.892" y="2.12" type="line"/>
			<point x="9.108" y="42.12" type="line"/>
			<point x="15.892" y="37.88" type="line"/>
			<point x="-9.108" y="-2.12" type="line"/>
		</contour>
	</outline>
</glyph>
<glyph name="pos.40" format="2">
	<advance width="25"/>
	<outline>
		<contour>
			<point x="-14.995" y="0.156" type="line"/>
			<point x="10.005" y="400.156" type="line"/>
			<point x="14.995" y="399.844" type="line"/>
			<point x="-10.005" y="-0.156" type="line"/>
		</contour>
	</outline>
</glyph>
<glyph name="pos.41" format="2">
	<advance width="25"/>
	<outline>
		<contour>
			<point x="-16.493" y="0.243" type="line"/>
			<point x="8.507" y="410.243" type="line"/>
			<point x="16.493" y="409.757" type="line"/>
			<point x="-8.507" y="-0.243" type="line"/>
		</contour>
	</outline>
</glyph>
<glyph name="pos.42" format="2">
	<advance width="25"/>
	<outline>
		<contour>
			<point x="-16.493" y="0.238" type="line"/>
			<point x="8.507" y="420.238" type="line"/>
			<point x="16.493" y="419.762" type="line"/>
			<point x="-8.507" y="-0.238" type="line"/>
		</contour>
	</outline>
</glyph>
<glyph name="pos.43" format="2">
	<advance width="25"/>
	<outline>
		<contour>
			<point x="-16.493" y="0.232" type="line"/>
			<point x="8.507" y="430.232" type="line"/>
			<point x="16.493" y="429.768" type="line"/>
			<point x="-8.507" y="-0.232" type="line"/>
		</contour>
	</outline>
</glyph>
<glyph name="pos.45" format="2">
	<advance width="25"/>
	<outline>
		<contour>
			<point x="-16.494" y="0.222" type="line"/>
			<point x="8.506" y="450.222" type="line"/>
			<point x="16.494" y="449.778" type="line"/>
			<point x="-8.506" y="-0.222" type="line"/>
		</contour>
	</outline>
</glyph>
<glyph name="pos.46" format="2">
	<advance width="25"/>
	<outline>
		<contour>
			<point x="-16.494" y="0.217" type="line"/>
			<point x="8.506" y="460.217" type="line"/>
			<point x="16.494" y="459.783" type="line"/>
			<point x="-8.506" y="-0.217" type="line"/>
		</contour>
	</outline>
</glyph>
<glyph name="pos.48" format="2">
	<advance width="25"/>
	<outline>
		<contour>
			<point x="-16.495" y="0.208" type="line"/>
			<point x="8.505" y="480.208" type="line"/>
			<point x="16.495" y="479.792" type="line"/>
			<point x="-8.505" y="-0.208" type="line"/>
		</contour>
	</outline>
</glyph>
<glyph name="pos.49" format="2">
	<advance width="25"/>
	<outline>
		<contour>
			<point x="-14.997" y="0.127" type="line"/>
			<point x="10.003" y="490.127" type="line"/>
			<point x="14.997" y="489.873" type="line"/>
			<point x="-10.003" y="-0.127" type="line"/>
		</contour>
	</outline>
</glyph>
<glyph name="pos.5" format="2">
	<advance width="25"/>
	<outline>
		<contour>
			<point x="-16.078" y="1.789" type="line"/>
			<point x="8.922" y="51.789" type="line"/>
			<point x="16.078" y="48.211" type="line"/>
			<point x="-8.922" y="-1.789" type="line"/>
		</contour>
	</outline>
</glyph>
<glyph name="pos.50" format="2">
	<advance width="25"/>
	<outline>
		<contour>
			<point x="-12.999" y="0.025" type="line"/>
			<point x="12.001" y="500.025" type="line"/>
			<point x="12.999" y="499.975" type="line"/>
			<point x="-12.001" y="-0.025" type="line"/>
		</contour>
	</outline>
</glyph>
<glyph name="pos.51" format="2">
	<advance width="25"/>
	<outline>
		<contour>
			<point x="-16.495" y="0.196" type="line"/>
			<point x="8.505" y="510.196" type="line"/>
			<point x="16.495" y="509.804" type="line"/>
			<point x="-8.505" y="-0.196" type="line"/>
		</contour>
	</outline>
</glyph>
<glyph name="pos.54" format="2">
	<advance width="25"/>
	<outline>
		<contour>
			<point x="-16.496" y="0.185" type="line"/>
			<point x="8.504" y="540.185" type="line"/>
			<point x="16.496" y="539.815" type="line"/>
			<point x="-8.504" y="-0.185" type="line"/>
		</contour>
	</outline>
</glyph>
<glyph name="pos.55" format="2">
	<advance width="25"/>
	<outline>
		<contour>
			<point x="-12.999" y="0.023" type="line"/>
			<point x="12.001" y="550.023" type="line"/>
			<point x="12.999" y="549.977" type="line"/>
			<point x="-12.001" y="-0.023" type="line"/>
		</contour>
	</outline>
</glyph>
<glyph name="pos.56" format="2">
	<advance width="25"/>
	<outline>
		<contour>
			<point x="-12" y="0.022" type="line"/>
			<point x="12" y="560.022" type="line"/>
			<point x="12" y="559.978" type="line"/>
			<point x="-12" y="-0.022" type="line"/>
		</contour>
	</outline>
</glyph>
<glyph name="pos.57" format="2">
	<advance width="25"/>
	<outline>
		<contour>
			<point x="-12" y="0.022" type="line"/>
			<point x="12" y="570.022" type="line"/>
			<point x="12" y="569.978" type="line"/>
			<point x="-12" y="-0.022" type="line"/>
		</contour>
	</outline>
</glyph>
<glyph name="pos.58" format="2">
	<advance width="25"/>
	<outline>
		<contour>
			<point x="-16.496" y="0.172" type="line"/>
			<point x="8.504" y="580.172" type="line"/>
			<point x="16.496" y="579.828" type="line"/>
			<point x="-8.504" y="-0.172" type="line"/>
		</contour>
	</outline>
</glyph>
<glyph name="pos.59" format="2">
	<advance width="25"/>
	<outline>
		<contour>
			<point x="-16.496" y="0.169" type="line"/>
			<point x="8.504" y="590.169" type="line"/>
			<point x="16.496" y="589.831" type="line"/>
			<point x="-8.504" y="-0.169" type="line"/>
		</contour>
	</outline>
</glyph>
<glyph name="pos.6" format="2">
	<advance width="25"/>
	<outline>
		<contour>
			<point x="-12.962" y="0.192" type="line"/>
			<point x="12.038" y="60.192" type="line"/>
			<point x="12.962" y="59.808" type="line"/>
			<point x="-12.038" y="-0.192" type="line"/>
		</contour>
	</outline>
</glyph>
<glyph name="pos.60" format="2">
	<advance width="25"/>
	<outline>
		<contour>
			<point x="-12" y="0.021" type="line"/>
			<point x="12" y="600.021" type="line"/>
			<point x="12" y="599.979" type="line"/>
			<point x="-12" y="-0.021" type="line"/>
		</contour>
	</outline>
</glyph>
<glyph name="pos.61" format="2">
	<advance width="25"/>
	<outline>
		<contour>
			<point x="-14.998" y="0.102" type="line"/>
			<point x="10.002" y="610.102" type="line"/>
			<point x="14.998" y="609.898" type="line"/>
			<point x="-10.002" y="-0.102" type="line"/>
		</contour>
	</outline>
</glyph>
<glyph name="pos.62" format="2">
	<advance width="25"/>
	<outline>
		<contour>
			<point x="-16.497" y="0.161" type="line"/>
			<point x="8.503" y="620.161" type="line"/>
			<point x="16.497" y="619.839" type="line"/>
			<point x="-8.503" y="-0.161" type="line"/>
		</contour>
	</outline>
</glyph>
<glyph name="pos.63" format="2">
	<advance width="25"/>
	<outline>
		<contour>
			<point x="-14.998" y="0.099" type="line"/>
			<point x="10.002" y="630.099" type="line"/>
			<point x="14.998" y="629.901" type="line"/>
			<point x="-10.002" y="-0.099" type="line"/>
		</contour>
	</outline>
</glyph>
<glyph name="pos.66" format="2">
	<advance width="25"/>
	<outline>
		<contour>
			<point x="-12" y="0.019" type="line"/>
			<point x="12" y="660.019" type="line"/>
			<point x="12" y="659.981" type="line"/>
			<point x="-12" y="-0.019" type="line"/>
		</contour>
	</outline>
</glyph>
<glyph name="pos.67" format="2">
	<advance width="25"/>
	<outline>
		<contour>
			<point x="-14.998" y="0.093" type="line"/>
			<point x="10.002" y="670.093" type="line"/>
			<point x="14.998" y="669.907" type="line"/>
			<point x="-10.002" y="-0.093" type="line"/>
		</contour>
	</outline>
</glyph>
<glyph name="pos.68" format="2">
	<advance width="25"/>
	<outline>
		<contour>
			<point x="-12" y="0.018" type="line"/>
			<point x="12" y="680.018" type="line"/>
			<point x="12" y="679.982" type="line"/>
			<point x="-12" y="-0.018" type="line"/>
		</contour>
	</outline>
</glyph>
<glyph name="pos.7" format="2">
	<advance width="25"/>
	<outline>
		<contour>
			<point x="-16.267" y="1.345" type="line"/>
			<point x="8.733" y="71.345" type="line"/>
			<point x="16.267" y="68.655" type="line"/>
			<point x="-8.733" y="-1.345" type="line"/>
		</contour>
	</outline>
</glyph>
<glyph name="pos.70" format="2">
	<advance width="25"/>
	<outline>
		<contour>
			<point x="-16.497" y="0.143" type="line"/>
			<point x="8.503" y="700.143" type="line"/>
			<point x="16.497" y="699.857" type="line"/>
			<point x="-8.503" y="-0.143" type="line"/>
		</contour>
	</outline>
</glyph>
<glyph name="pos.71" format="2">
	<advance width="25"/>
	<outline>
		<contour>
			<point x="-12" y="0.018" type="line"/>
			<point x="12" y="710.018" type="line"/>
			<point x="12" y="709.982" type="line"/>
			<point x="-12" y="-0.018" type="line"/>
		</contour>
	</outline>
</glyph>
<glyph name="pos.73" format="2">
	<advance width="25"/>
	<outline>
		<contour>
			<point x="-12" y="0.017" type="line"/>
			<point x="12" y="730.017" type="line"/>
			<point x="12" y="729.983" type="line"/>
			<point x="-12" y="-0.017" type="line"/>
		</contour>
	</outline>
</glyph>
<glyph name="pos.74" format="2">
	<advance width="25"/>
	<outline>
		<contour>
			<point x="-14.999" y="0.084" type="line"/>
			<point x="10.001" y="740.084" type="line"/>
			<point x="14.999" y="739.916" type="line"/>
			<point x="-10.001" y="-0.084" type="line"/>
		</contour>
	</outline>
</glyph>
<glyph name="pos.75" format="2">
	<advance width="25"/>
	<outline>
		<contour>
			<point x="-12" y="0.017" type="line"/>
			<point x="12" y="750.017" type="line"/>
			<point x="12" y="749.983" type="line"/>
			<point x="-12" y="-0.017" type="line"/>
		</contour>
	</outline>
</glyph>
<glyph name="pos.76" format="2">
	<advance width="25"/>
	<outline>
		<contour>
			<point x="-16.498" y="0.132" type="line"/>
			<point x="8.502" y="760.132" type="line"/>
			<point x="16.498" y="759.868" type="line"/>
			<point x="-8.502" y="-0.132" type="line"/>
		</contour>
	</outline>
</glyph>
<glyph name="pos.77" format="2">
	<advance width="25"/>
	<outline>
		<contour>
			<point x="-16.498" y="0.13" type="line"/>
			<point x="8.502" y="770.13" type="line"/>
			<point x="16.498" y="769.87" type="line"/>
			<point x="-8.502" y="-0.13" type="line"/>
		</contour>
	</outline>
</glyph>
<glyph name="pos.78" format="2">
	<advance width="25"/>
	<outline>
		<contour>
			<point x="-16.498" y="0.128" type="line"/>
			<point x="8.502" y="780.128" type="line"/>
			<point x="16.498" y="779.872" type="line"/>
			<point x="-8.502" y="-0.128" type="line"/>
		</contour>
	</outline>
</glyph>
<glyph name="pos.79" format="2">
	<advance width="25"/>
	<outline>
		<contour>
			<point x="-16.498" y="0.127" type="line"/>
			<point x="8.502" y="790.127" type="line"/>
			<point x="16.498" y="789.873" type="line"/>
			<point x="-8.502" y="-0.127" type="line"/>
		</contour>
	</outline>
</glyph>
<glyph name="pos.8" format="2">
	<advance width="25"/>
	<outline>
		<contour>
			<point x="-16.318" y="1.193" type="line"/>
			<point x="8.682" y="81.193" type="line"/>
			<point x="16.318" y="78.807" type="line"/>
			<point x="-8.682" y="-1.193" type="line"/>
		</contour>
	</outline>
</glyph>
<glyph name="pos.80" format="2">
	<advance width="25"/>
	<outline>
		<contour>
			<point x="-16.498" y="0.125" type="line"/>
			<point x="8.502" y="800.125" type="line"/>
			<point x="16.498" y="799.875" type="line"/>
			<point x="-8.502" y="-0.125" type="line"/>
		</contour>
	</outline>
</glyph>
<glyph name="pos.81" format="2">
	<advance width="25"/>
	<outline>
		<contour>
			<point x="-12" y="0.015" type="line"/>
			<point x="12" y="810.015" type="line"/>
			<point x="12" y="809.985" type="line"/>
			<point x="-12" y="-0.015" type="line"/>
		</contour>
	</outline>
</glyph>
<glyph name="pos.82" format="2">
	<advance width="25"/>
	<outline>
		<contour>
			<point x="-16.498" y="0.122" type="line"/>
			<point x="8.502" y="820.122" type="line"/>
			<point x="16.498" y="819.878" type="line"/>
			<point x="-8.502" y="-0.122" type="line"/>
		</contour>
	</outline>
</glyph>
<glyph name="pos.83" format="2">
	<advance width="25"/>
	<outline>
		<contour>
			<point x="-12" y="0.015" type="line"/>
			<point x="12" y="830.015" type="line"/>
			<point x="12" y="829.985" type="line"/>
			<point x="-12" y="-0.015" type="line"/>
		</contour>
	</outline>
</glyph>
<glyph name="pos.84" format="2">
	<advance width="25"/>
	<outline>
		<contour>
			<point x="-16.498" y="0.119" type="line"/>
			<point x="8.502" y="840.119" type="line"/>
			<point x="16.498" y="839.881" type="line"/>
			<point x="-8.502" y="-0.119" type="line"/>
		</contour>
	</outline>
</glyph>
<glyph name="pos.85" format="2">
	<advance width="25"/>
	<outline>
		<contour>
			<point x="-12" y="0.015" type="line"/>
			<point x="12" y="850.015" type="line"/>
			<point x="12" y="849.985" type="line"/>
			<point x="-12" y="-0.015" type="line"/>
		</contour>
	</outline>
</glyph>
<glyph name="pos.86" format="2">
	<advance width="25"/>
	<outline>
		<contour>
			<point x="-16.498" y="0.116" type="line"/>
			<point x="8.502" y="860.116" type="line"/>
			<point x="16.498" y="859.884" type="line"/>
			<point x="-8.502" y="-0.116" type="line"/>
		</contour>
	</outline>
</glyph>
<glyph name="pos.87" format="2">
	<advance width="25"/>
	<outline>
		<contour>
			<point x="-16.498" y="0.115" type="line"/>
			<point x="8.502" y="870.115" type="line"/>
			<point x="16.498" y="869.885" type="line"/>
			<point x="-8.502" y="-0.115" type="line"/>
		</contour>
	</outline>
</glyph>
<glyph name="pos.89" format="2">
	<advance width="25"/>
	<outline>
		<contour>
			<point x="-12" y="0.014" type="line"/>
			<point x="12" y="890.014" type="line"/>
			<point x="12" y="889.986" type="line"/>
			<point x="-12" y="-0.014" type="line"/>
		</contour>
	</outline>
</glyph>
<glyph name="pos.9" format="2">
	<advance width="25"/>
	<outline>
		<contour>
			<point x="-12.982" y="0.134" type="line"/>
			<point x="12.018" y="90.134" type="line"/>
			<point x="12.982" y="89.866" type="line"/>
			<point x="-12.018" y="-0.134" type="line"/>
		</contour>
	</outline>
</glyph>
<glyph name="pos.90" format="2">
	<advance width="25"/>
	<outline>
		<contour>
			<point x="-16.498" y="0.111" type="line"/>
			<point x="8.502" y="900.111" type="line"/>
			<point x="16.498" y="899.889" type="line"/>
			<point x="-8.502" y="-0.111" type="line"/>
		</contour>
	</outline>
</glyph>
<glyph name="pos.91" format="2">
	<advance width="25"/>
	<outline>
		<contour>
			<point x="-16.498" y="0.11" type="line"/>
			<point x="8.502" y="910.11" type="line"/>
			<point x="16.498" y="909.89" type="line"/>
			<point x="-8.502" y="-0.11" type="line"/>
		</contour>
	</outline>
</glyph>
<glyph name="pos.92" format="2">
	<advance width="25"/>
	<outline>
		<contour>
			<point x="-12" y="0.014" type="line"/>
			<point x="12" y="920.014" type="line"/>
			<point x="12" y="919.986" type="line"/>
			<point x="-12" y="-0.014" type="line"/>
		</contour>
	</outline>
</glyph>
<glyph name="pos.93" format="2">
	<advance width="25"/>
	<outline>
		<contour>
			<point x="-14.999" y="0.067" type="line"/>
			<point x="10.001" y="930.067" type="line"/>
			<point x="14.999" y="929.933" type="line"/>
			<point x="-10.001" y="-0.067" type="line"/>
		</contour>
	</outline>
</glyph>
<glyph name="pos.95" format="2">
	<advance width="25"/>
	<outline>
		<contour>
			<point x="-16.499" y="0.105" type="line"/>
			<point x="8.501" y="950.105" type="line"/>
			<point x="16.499" y="949.895" type="line"/>
			<point x="-8.501" y="-0.105" type="line"/>
		</contour>
	</outline>
</glyph>
<glyph name="pos.96" format="2">
	<advance width="25"/>
	<outline>
		<contour>
			<point x="-14.999" y="0.065" type="line"/>
			<point x="10.001" y="960.065" type="line"/>
			<point x="14.999" y="959.935" type="line"/>
			<point x="-10.001" y="-0.065" type="line"/>
		</contour>
	</outline>
</glyph>
<glyph name="pos.97" format="2">
	<advance width="25"/>
	<outline>
		<contour>
			<point x="-16.499" y="0.103" type="line"/>
			<point x="8.501" y="970.103" type="line"/>
			<point x="16.499" y="969.897" type="line"/>
			<point x="-8.501" y="-0.103" type="line"/>
		</contour>
	</outline>
</glyph>
<glyph name="pos.98" format="2">
	<advance width="25"/>
	<outline>
		<contour>
			<point x="-12" y="0.013" type="line"/>
			<point x="12" y="980.013" type="line"/>
			<point x="12" y="979.987" type="line"/>
			<point x="-12" y="-0.013" type="line"/>
		</contour>
	</outline>
</glyph>
<glyph name="pos.99" format="2">
	<advance width="25"/>
	<outline>
		<contour>
			<point x="-12" y="0.013" type="line"/>
			<point x="12" y="990.013" type="line"/>
			<point x="12" y="989.987" type="line"/>
			<point x="-12" y="-0.013" type="line"/>
		</contour>
	</outline>
</glyph>
<glyph name="to-10" format="2">
	<advance width="25"/>
	<outline>
		<contour>
			<point x="-10.075" y="0.606" type="line"/>
			<point x="14.925" y="-99.394" type="line"/>
			<point x="10.075" y="-100.606" type="line"/>
			<point x="-14.925" y="-0.606" type="line"/>
		</contour>
	</outline>
</glyph>
<glyph name="to-100" format="2">
	<advance width="25"/>
	<outline>
		<contour>
			<point x="-10.501" y="0.05" type="line"/>
			<point x="14.499" y="-999.95" type="line"/>
			<point x="10.501" y="-1000.05" type="line"/>
			<point x="-14.499" y="-0.05" type="line"/>
		</contour>
	</outline>
</glyph>
<glyph name="to-101" format="2">
	<advance width="10"/>
	<outline>
		<contour>
			<point x="-5" y="0" type="line"/>
			<point x="5" y="-1010" type="line"/>
			<point x="5" y="-1010" type="line"/>
			<point x="-5" y="0" type="line"/>
		</contour>
	</outline>
</glyph>
<glyph name="to-103" format="2">
	<advance width="25"/>
	<outline>
		<contour>
			<point x="-10.501" y="0.049" type="line"/>
			<point x="14.499" y="-1029.951" type="line"/>
			<point x="10.501" y="-1030.049" type="line"/>
			<point x="-14.499" y="-0.049" type="line"/>
		</contour>
	</outline>
</glyph>
<glyph name="to-106" format="2">
	<advance width="25"/>
	<outline>
		<contour>
			<point x="-10.001" y="0.059" type="line"/>
			<point x="14.999" y="-1059.941" type="line"/>
			<point x="10.001" y="-1060.059" type="line"/>
			<point x="-14.999" y="-0.059" type="line"/>
		</contour>
	</outline>
</glyph>
<glyph name="to-107" format="2">
	<advance width="25"/>
	<outline>
		<contour>
			<point x="-10.501" y="0.047" type="line"/>
			<point x="14.499" y="-1069.953" type="line"/>
			<point x="10.501" y="-1070.047" type="line"/>
			<point x="-14.499" y="-0.047" type="line"/>
		</contour>
	</outline>
</glyph>
<glyph name="to-108" format="2">
	<advance width="25"/>
	<outline>
		<contour>
			<point x="-10.001" y="0.058" type="line"/>
			<point x="14.999" y="-1079.942" type="line"/>
			<point x="10.001" y="-1080.058" type="line"/>
			<point x="-14.999" y="-0.058" type="line"/>
		</contour>
	</outline>
</glyph>
<glyph name="to-11" format="2">
	<advance width="25"/>
	<outline>
		<contour>
			<point x="-10.55" y="0.443" type="line"/>
			<point x="14.45" y="-109.557" type="line"/>
			<point x="10.55" y="-110.443" type="line"/>
			<point x="-14.45" y="-0.443" type="line"/>
		</contour>
	</outline>
</glyph>
<glyph name="to-110" format="2">
	<advance width="10"/>
	<outline>
		<contour>
			<point x="-5" y="0" type="line"/>
			<point x="5" y="-1100" type="line"/>
			<point x="5" y="-1100" type="line"/>
			<point x="-5" y="0" type="line"/>
		</contour>
	</outline>
</glyph>
<glyph name="to-111" format="2">
	<advance width="25"/>
	<outline>
		<contour>
			<point x="-10.001" y="0.056" type="line"/>
			<point x="14.999" y="-1109.944" type="line"/>
			<point x="10.001" y="-1110.056" type="line"/>
			<point x="-14.999" y="-0.056" type="line"/>
		</contour>
	</outline>
</glyph>
<glyph name="to-115" format="2">
	<advance width="10"/>
	<outline>
		<contour>
			<point x="-5" y="0" type="line"/>
			<point x="5" y="-1150" type="line"/>
			<point x="5" y="-1150" type="line"/>
			<point x="-5" y="0" type="line"/>
		</contour>
	</outline>
</glyph>
<glyph name="to-116" format="2">
	<advance width="25"/>
	<outline>
		<contour>
			<point x="-10.001" y="0.054" type="line"/>
			<point x="14.999" y="-1159.946" type="line"/>
			<point x="10.001" y="-1160.054" type="line"/>
			<point x="-14.999" y="-0.054" type="line"/>
		</contour>
	</outline>
</glyph>
<glyph name="to-119" format="2">
	<advance width="25"/>
	<outline>
		<contour>
			<point x="-10.5" y="0.042" type="line"/>
			<point x="14.5" y="-1189.958" type="line"/>
			<point x="10.5" y="-1190.042" type="line"/>
			<point x="-14.5" y="-0.042" type="line"/>
		</contour>
	</outline>
</glyph>
<glyph name="to-12" format="2">
	<advance width="25"/>
	<outline>
		<contour>
			<point x="-10.542" y="0.408" type="line"/>
			<point x="14.458" y="-119.592" type="line"/>
			<point x="10.542" y="-120.408" type="line"/>
			<point x="-14.458" y="-0.408" type="line"/>
		</contour>
	</outline>
</glyph>
<glyph name="to-120" format="2">
	<advance width="25"/>
	<outline>
		<contour>
			<point x="-10.5" y="0.042" type="line"/>
			<point x="14.5" y="-1199.958" type="line"/>
			<point x="10.5" y="-1200.042" type="line"/>
			<point x="-14.5" y="-0.042" type="line"/>
		</contour>
	</outline>
</glyph>
<glyph name="to-123" format="2">
	<advance width="25"/>
	<outline>
		<contour>
			<point x="-10.5" y="0.041" type="line"/>
			<point x="14.5" y="-1229.959" type="line"/>
			<point x="10.5" y="-1230.041" type="line"/>
			<point x="-14.5" y="-0.041" type="line"/>
		</contour>
	</outline>
</glyph>
<glyph name="to-126" format="2">
	<advance width="25"/>
	<outline>
		<contour>
			<point x="-10.5" y="0.04" type="line"/>
			<point x="14.5" y="-1259.96" type="line"/>
			<point x="10.5" y="-1260.04" type="line"/>
			<point x="-14.5" y="-0.04" type="line"/>
		</contour>
	</outline>
</glyph>
<glyph name="to-127" format="2">
	<advance width="25"/>
	<outline>
		<contour>
			<point x="-10" y="0.049" type="line"/>
			<point x="14" y="-1269.951" type="line"/>
			<point x="10" y="-1270.049" type="line"/>
			<point x="-14" y="-0.049" type="line"/>
		</contour>
	</outline>
</glyph>
<glyph name="to-14" format="2">
	<advance width="10"/>
	<outline>
		<contour>
			<point x="-5" y="0" type="line"/>
			<point x="5" y="-140" type="line"/>
			<point x="5" y="-140" type="line"/>
			<point x="-5" y="0" type="line"/>
		</contour>
	</outline>
</glyph>
<glyph name="to-16" format="2">
	<advance width="10"/>
	<outline>
		<contour>
			<point x="-5" y="0" type="line"/>
			<point x="5" y="-160" type="line"/>
			<point x="5" y="-160" type="line"/>
			<point x="-5" y="0" type="line"/>
		</contour>
	</outline>
</glyph>
<glyph name="to-17" format="2">
	<advance width="25"/>
	<outline>
		<contour>
			<point x="-10.521" y="0.291" type="line"/>
			<point x="14.479" y="-169.709" type="line"/>
			<point x="10.521" y="-170.291" type="line"/>
			<point x="-14.479" y="-0.291" type="line"/>
		</contour>
	</outline>
</glyph>
<glyph name="to-18" format="2">
	<advance width="25"/>
	<outline>
		<contour>
			<point x="-10.519" y="0.275" type="line"/>
			<point x="14.481" y="-179.725" type="line"/>
			<point x="10.519" y="-180.275" type="line"/>
			<point x="-14.481" y="-0.275" type="line"/>
		</contour>
	</outline>
</glyph>
<glyph name="to-19" format="2">
	<advance width="25"/>
	<outline>
		<contour>
			<point x="-10.517" y="0.261" type="line"/>
			<point x="14.483" y="-189.739" type="line"/>
			<point x="10.517" y="-190.261" type="line"/>
			<point x="-14.483" y="-0.261" type="line"/>
		</contour>
	</outline>
</glyph>
<glyph name="to-2" format="2">
	<advance width="10"/>
	<outline>
		<contour>
			<point x="-5" y="0" type="line"/>
			<point x="5" y="-20" type="line"/>
			<point x="5" y="-20" type="line"/>
			<point x="-5" y="0" type="line"/>
		</contour>
	</outline>
</glyph>
<glyph name="to-20" format="2">
	<advance width="25"/>
	<outline>
		<contour>
			<point x="-10.515" y="0.248" type="line"/>
			<point x="14.485" y="-199.752" type="line"/>
			<point x="10.515" y="-200.248" type="line"/>
			<point x="-14.485" y="-0.248" type="line"/>
		</contour>
	</outline>
</glyph>
<glyph name="to-21" format="2">
	<advance width="25"/>
	<outline>
		<contour>
			<point x="-10.514" y="0.236" type="line"/>
			<point x="14.486" y="-209.764" type="line"/>
			<point x="10.514" y="-210.236" type="line"/>
			<point x="-14.486" y="-0.236" type="line"/>
		</contour>
	</outline>
</glyph>
<glyph name="to-25" format="2">
	<advance width="25"/>
	<outline>
		<contour>
			<point x="-10.51" y="0.199" type="line"/>
			<point x="14.49" y="-249.801" type="line"/>
			<point x="10.51" y="-250.199" type="line"/>
			<point x="-14.49" y="-0.199" type="line"/>
		</contour>
	</outline>
</glyph>
<glyph name="to-28" format="2">
	<advance width="25"/>
	<outline>
		<contour>
			<point x="-10.508" y="0.178" type="line"/>
			<point x="14.492" y="-279.822" type="line"/>
			<point x="10.508" y="-280.178" type="line"/>
			<point x="-14.492" y="-0.178" type="line"/>
		</contour>
	</outline>
</glyph>
<glyph name="to-29" format="2">
	<advance width="25"/>
	<outline>
		<contour>
			<point x="-10.009" y="0.215" type="line"/>
			<point x="14.991" y="-289.785" type="line"/>
			<point x="10.009" y="-290.215" type="line"/>
			<point x="-14.991" y="-0.215" type="line"/>
		</contour>
	</outline>
</glyph>
<glyph name="to-3" format="2">
	<advance width="25"/>
	<outline>
		<contour>
			<point x="-10.964" y="1.28" type="line"/>
			<point x="14.036" y="-28.72" type="line"/>
			<point x="10.964" y="-31.28" type="line"/>
			<point x="-14.036" y="-1.28" type="line"/>
		</contour>
	</outline>
</glyph>
<glyph name="to-30" format="2">
	<advance width="25"/>
	<outline>
		<contour>
			<point x="-10.507" y="0.166" type="line"/>
			<point x="14.493" y="-299.834" type="line"/>
			<point x="10.507" y="-300.166" type="line"/>
			<point x="-14.493" y="-0.166" type="line"/>
		</contour>
	</outline>
</glyph>
<glyph name="to-32" format="2">
	<advance width="25"/>
	<outline>
		<contour>
			<point x="-10.506" y="0.156" type="line"/>
			<point x="14.494" y="-319.844" type="line"/>
			<point x="10.506" y="-320.156" type="line"/>
			<point x="-14.494" y="-0.156" type="line"/>
		</contour>
	</outline>
</glyph>
<glyph name="to-33" format="2">
	<advance width="10"/>
	<outline>
		<contour>
			<point x="-5" y="0" type="line"/>
			<point x="5" y="-330" type="line"/>
			<point x="5" y="-330" type="line"/>
			<point x="-5" y="0" type="line"/>
		</contour>
	</outline>
</glyph>
<glyph name="to-34" format="2">
	<advance width="25"/>
	<outline>
		<contour>
			<point x="-10.007" y="0.183" type="line"/>
			<point x="14.993" y="-339.817" type="line"/>
			<point x="10.007" y="-340.183" type="line"/>
			<point x="-14.993" y="-0.183" type="line"/>
		</contour>
	</outline>
</glyph>
<glyph name="to-35" format="2">
	<advance width="25"/>
	<outline>
		<contour>
			<point x="-10.006" y="0.178" type="line"/>
			<point x="14.994" y="-349.822" type="line"/>
			<point x="10.006" y="-350.178" type="line"/>
			<point x="-14.994" y="-0.178" type="line"/>
		</contour>
	</outline>
</glyph>
<glyph name="to-38" format="2">
	<advance width="25"/>
	<outline>
		<contour>
			<point x="-10.504" y="0.131" type="line"/>
			<point x="14.496" y="-379.869" type="line"/>
			<point x="10.504" y="-380.131" type="line"/>
			<point x="-14.496" y="-0.131" type="line"/>
		</contour>
	</outline>
</glyph>
<glyph name="to-40" format="2">
	<advance width="10"/>
	<outline>
		<contour>
			<point x="-5" y="0" type="line"/>
			<point x="5" y="-400" type="line"/>
			<point x="5" y="-400" type="line"/>
			<point x="-5" y="0" type="line"/>
		</contour>
	</outline>
</glyph>
<glyph name="to-42" format="2">
	<advance width="25"/>
	<outline>
		<contour>
			<point x="-10.504" y="0.119" type="line"/>
			<point x="14.496" y="-419.881" type="line"/>
			<point x="10.504" y="-420.119" type="line"/>
			<point x="-14.496" y="-0.119" type="line"/>
		</contour>
	</outline>
</glyph>
<glyph name="to-44" format="2">
	<advance width="10"/>
	<outline>
		<contour>
			<point x="-5" y="0" type="line"/>
			<point x="5" y="-440" type="line"/>
			<point x="5" y="-440" type="line"/>
			<point x="-5" y="0" type="line"/>
		</contour>
	</outline>
</glyph>
<glyph name="to-45" format="2">
	<advance width="25"/>
	<outline>
		<contour>
			<point x="-10.004" y="0.139" type="line"/>
			<point x="14.996" y="-449.861" type="line"/>
			<point x="10.004" y="-450.139" type="line"/>
			<point x="-14.996" y="-0.139" type="line"/>
		</contour>
	</outline>
</glyph>
<glyph name="to-46" format="2">
	<advance width="25"/>
	<outline>
		<contour>
			<point x="-10.503" y="0.109" type="line"/>
			<point x="14.497" y="-459.891" type="line"/>
			<point x="10.503" y="-460.109" type="line"/>
			<point x="-14.497" y="-0.109" type="line"/>
		</contour>
	</outline>
</glyph>
<glyph name="to-47" format="2">
	<advance width="25"/>
	<outline>
		<contour>
			<point x="-10.004" y="0.133" type="line"/>
			<point x="14.996" y="-469.867" type="line"/>
			<point x="10.004" y="-470.133" type="line"/>
			<point x="-14.996" y="-0.133" type="line"/>
		</contour>
	</outline>
</glyph>
<glyph name="to-48" format="2">
	<advance width="25"/>
	<outline>
		<contour>
			<point x="-10.503" y="0.104" type="line"/>
			<point x="14.497" y="-479.896" type="line"/>
			<point x="10.503" y="-480.104" type="line"/>
			<point x="-14.497" y="-0.104" type="line"/>
		</contour>
	</outline>
</glyph>
<glyph name="to-5" format="2">
	<advance width="25"/>
	<outline>
		<contour>
			<point x="-10.711" y="0.894" type="line"/>
			<point x="14.289" y="-49.106" type="line"/>
			<point x="10.711" y="-50.894" type="line"/>
			<point x="-14.289" y="-0.894" type="line"/>
		</contour>
	</outline>
</glyph>
<glyph name="to-50" format="2">
	<advance width="25"/>
	<outline>
		<contour>
			<point x="-10.502" y="0.1" type="line"/>
			<point x="14.498" y="-499.9" type="line"/>
			<point x="10.502" y="-500.1" type="line"/>
			<point x="-14.498" y="-0.1" type="line"/>
		</contour>
	</outline>
</glyph>
<glyph name="to-53" format="2">
	<advance width="25"/>
	<outline>
		<contour>
			<point x="-10.003" y="0.118" type="line"/>
			<point x="14.997" y="-529.882" type="line"/>
			<point x="10.003" y="-530.118" type="line"/>
			<point x="-14.997" y="-0.118" type="line"/>
		</contour>
	</outline>
</glyph>
<glyph name="to-54" format="2">
	<advance width="25"/>
	<outline>
		<contour>
			<point x="-10.502" y="0.092" type="line"/>
			<point x="14.498" y="-539.908" type="line"/>
			<point x="10.502" y="-540.092" type="line"/>
			<point x="-14.498" y="-0.092" type="line"/>
		</contour>
	</outline>
</glyph>
<glyph name="to-56" format="2">
	<advance width="25"/>
	<outline>
		<contour>
			<point x="-10.002" y="0.111" type="line"/>
			<point x="14.998" y="-559.889" type="line"/>
			<point x="10.002" y="-560.111" type="line"/>
			<point x="-14.998" y="-0.111" type="line"/>
		</contour>
	</outline>
</glyph>
<glyph name="to-57" format="2">
	<advance width="25"/>
	<outline>
		<contour>
			<point x="-10.502" y="0.088" type="line"/>
			<point x="14.498" y="-569.912" type="line"/>
			<point x="10.502" y="-570.088" type="line"/>
			<point x="-14.498" y="-0.088" type="line"/>
		</contour>
	</outline>
</glyph>
<glyph name="to-58" format="2">
	<advance width="25"/>
	<outline>
		<contour>
			<point x="-10.502" y="0.086" type="line"/>
			<point x="14.498" y="-579.914" type="line"/>
			<point x="10.502" y="-580.086" type="line"/>
			<point x="-14.498" y="-0.086" type="line"/>
		</contour>
	</outline>
</glyph>
<glyph name="to-6" format="2">
	<advance width="25"/>
	<outline>
		<contour>
			<point x="-10.654" y="0.769" type="line"/>
			<point x="14.346" y="-59.231" type="line"/>
			<point x="10.654" y="-60.769" type="line"/>
			<point x="-14.346" y="-0.769" type="line"/>
		</contour>
	</outline>
</glyph>
<glyph name="to-60" format="2">
	<advance width="25"/>
	<outline>
		<contour>
			<point x="-10.502" y="0.083" type="line"/>
			<point x="14.498" y="-599.917" type="line"/>
			<point x="10.502" y="-600.083" type="line"/>
			<point x="-14.498" y="-0.083" type="line"/>
		</contour>
	</outline>
</glyph>
<glyph name="to-62" format="2">
	<advance width="25"/>
	<outline>
		<contour>
			<point x="-10.502" y="0.081" type="line"/>
			<point x="14.498" y="-619.919" type="line"/>
			<point x="10.502" y="-620.081" type="line"/>
			<point x="-14.498" y="-0.081" type="line"/>
		</contour>
	</outline>
</glyph>
<glyph name="to-63" format="2">
	<advance width="25"/>
	<outline>
		<contour>
			<point x="-10.502" y="0.079" type="line"/>
			<point x="14.498" y="-629.921" type="line"/>
			<point x="10.502" y="-630.079" type="line"/>
			<point x="-14.498" y="-0.079" type="line"/>
		</contour>
	</outline>
</glyph>
<glyph name="to-64" format="2">
	<advance width="25"/>
	<outline>
		<contour>
			<point x="-10.002" y="0.098" type="line"/>
			<point x="14.998" y="-639.902" type="line"/>
			<point x="10.002" y="-640.098" type="line"/>
			<point x="-14.998" y="-0.098" type="line"/>
		</contour>
	</outline>
</glyph>
<glyph name="to-65" format="2">
	<advance width="25"/>
	<outline>
		<contour>
			<point x="-10.501" y="0.077" type="line"/>
			<point x="14.499" y="-649.923" type="line"/>
			<point x="10.501" y="-650.077" type="line"/>
			<point x="-14.499" y="-0.077" type="line"/>
		</contour>
	</outline>
</glyph>
<glyph name="to-67" format="2">
	<advance width="25"/>
	<outline>
		<contour>
			<point x="-10.501" y="0.075" type="line"/>
			<point x="14.499" y="-669.925" type="line"/>
			<point x="10.501" y="-670.075" type="line"/>
			<point x="-14.499" y="-0.075" type="line"/>
		</contour>
	</outline>
</glyph>
<glyph name="to-7" format="2">
	<advance width="10"/>
	<outline>
		<contour>
			<point x="-5" y="0" type="line"/>
			<point x="5" y="-70" type="line"/>
			<point x="5" y="-70" type="line"/>
			<point x="-5" y="0" type="line"/>
		</contour>
	</outline>
</glyph>
<glyph name="to-71" format="2">
	<advance width="25"/>
	<outline>
		<contour>
			<point x="-10.501" y="0.07" type="line"/>
			<point x="14.499" y="-709.93" type="line"/>
			<point x="10.501" y="-710.07" type="line"/>
			<point x="-14.499" y="-0.07" type="line"/>
		</contour>
	</outline>
</glyph>
<glyph name="to-72" format="2">
	<advance width="25"/>
	<outline>
		<contour>
			<point x="-10.002" y="0.087" type="line"/>
			<point x="14.998" y="-719.913" type="line"/>
			<point x="10.002" y="-720.087" type="line"/>
			<point x="-14.998" y="-0.087" type="line"/>
		</contour>
	</outline>
</glyph>
<glyph name="to-73" format="2">
	<advance width="25"/>
	<outline>
		<contour>
			<point x="-10.001" y="0.086" type="line"/>
			<point x="14.999" y="-729.914" type="line"/>
			<point x="10.001" y="-730.086" type="line"/>
			<point x="-14.999" y="-0.086" type="line"/>
		</contour>
	</outline>
</glyph>
<glyph name="to-74" format="2">
	<advance width="25"/>
	<outline>
		<contour>
			<point x="-10.501" y="0.068" type="line"/>
			<point x="14.499" y="-739.932" type="line"/>
			<point x="10.501" y="-740.068" type="line"/>
			<point x="-14.499" y="-0.068" type="line"/>
		</contour>
	</outline>
</glyph>
<glyph name="to-77" format="2">
	<advance width="25"/>
	<outline>
		<contour>
			<point x="-10.501" y="0.065" type="line"/>
			<point x="14.499" y="-769.935" type="line"/>
			<point x="10.501" y="-770.065" type="line"/>
			<point x="-14.499" y="-0.065" type="line"/>
		</contour>
	</outline>
</glyph>
<glyph name="to-8" format="2">
	<advance width="25"/>
	<outline>
		<contour>
			<point x="-10.114" y="0.746" type="line"/>
			<point x="14.886" y="-79.254" type="line"/>
			<point x="10.114" y="-80.746" type="line"/>
			<point x="-14.886" y="-0.746" type="line"/>
		</contour>
	</outline>
</glyph>
<glyph name="to-80" format="2">
	<advance width="25"/>
	<outline>
		<contour>
			<point x="-10.001" y="0.078" type="line"/>
			<point x="14.999" y="-799.922" type="line"/>
			<point x="10.001" y="-800.078" type="line"/>
			<point x="-14.999" y="-0.078" type="line"/>
		</contour>
	</outline>
</glyph>
<glyph name="to-81" format="2">
	<advance width="25"/>
	<outline>
		<contour>
			<point x="-10.501" y="0.062" type="line"/>
			<point x="14.499" y="-809.938" type="line"/>
			<point x="10.501" y="-810.062" type="line"/>
			<point x="-14.499" y="-0.062" type="line"/>
		</contour>
	</outline>
</glyph>
<glyph name="to-82" format="2">
	<advance width="25"/>
	<outline>
		<contour>
			<point x="-10.501" y="0.061" type="line"/>
			<point x="14.499" y="-819.939" type="line"/>
			<point x="10.501" y="-820.061" type="line"/>
			<point x="-14.499" y="-0.061" type="line"/>
		</contour>
	</outline>
</glyph>
<glyph name="to-84" format="2">
	<advance width="25"/>
	<outline>
		<contour>
			<point x="-10.501" y="0.059" type="line"/>
			<point x="14.499" y="-839.941" type="line"/>
			<point x="10.501" y="-840.059" type="line"/>
			<point x="-14.499" y="-0.059" type="line"/>
		</contour>
	</outline>
</glyph>
<glyph name="to-85" format="2">
	<advance width="25"/>
	<outline>
		<contour>
			<point x="-10.001" y="0.073" type="line"/>
			<point x="14.999" y="-849.927" type="line"/>
			<point x="10.001" y="-850.073" type="line"/>
			<point x="-14.999" y="-0.073" type="line"/>
		</contour>
	</outline>
</glyph>
<glyph name="to-86" format="2">
	<advance width="25"/>
	<outline>
		<contour>
			<point x="-10.001" y="0.073" type="line"/>
			<point x="14.999" y="-859.927" type="line"/>
			<point x="10.001" y="-860.073" type="line"/>
			<point x="-14.999" y="-0.073" type="line"/>
		</contour>
	</outline>
</glyph>
<glyph name="to-88" format="2">
	<advance width="25"/>
	<outline>
		<contour>
			<point x="-10.501" y="0.057" type="line"/>
			<point x="14.499" y="-879.943" type="line"/>
			<point x="10.501" y="-880.057" type="line"/>
			<point x="-14.499" y="-0.057" type="line"/>
		</contour>
	</outline>
</glyph>
<glyph name="to-92" format="2">
	<advance width="25"/>
	<outline>
		<contour>
			<point x="-10.501" y="0.054" type="line"/>
			<point x="14.499" y="-919.946" type="line"/>
			<point x="10.501" y="-920.054" type="line"/>
			<point x="-14.499" y="-0.054" type="line"/>
		</contour>
	</outline>
</glyph>
<glyph name="to-93" format="2">
	<advance width="25"/>
	<outline>
		<contour>
			<point x="-10.501" y="0.054" type="line"/>
			<point x="14.499" y="-929.946" type="line"/>
			<point x="10.501" y="-930.054" type="line"/>
			<point x="-14.499" y="-0.054" type="line"/>
		</contour>
	</outline>
</glyph>
<glyph name="to-94" format="2">
	<advance width="25"/>
	<outline>
		<contour>
			<point x="-10.001" y="0.066" type="line"/>
			<point x="14.999" y="-939.934" type="line"/>
			<point x="10.001" y="-940.066" type="line"/>
			<point x="-14.999" y="-0.066" type="line"/>
		</contour>
	</outline>
</glyph>
<glyph name="to-95" format="2">
	<advance width="25"/>
	<outline>
		<contour>
			<point x="-10.501" y="0.053" type="line"/>
			<point x="14.499" y="-949.947" type="line"/>
			<point x="10.501" y="-950.053" type="line"/>
			<point x="-14.499" y="-0.053" type="line"/>
		</contour>
	</outline>
</glyph>
<glyph name="to-96" format="2">
	<advance width="10"/>
	<outline>
		<contour>
			<point x="-5" y="0" type="line"/>
			<point x="5" y="-960" type="line"/>
			<point x="5" y="-960" type="line"/>
			<point x="-5" y="0" type="line"/>
		</contour>
	</outline>
</glyph>
<glyph name="to1" format="2">
	<advance width="25"/>
	<outline>
		<contour>
			<point x="-13.243" y="1.857" type="line"/>
			<point x="11.757" y="11.857" type="line"/>
			<point x="13.243" y="8.143" type="line"/>
			<point x="-11.757" y="-1.857" type="line"/>
		</contour>
	</outline>
</glyph>
<glyph name="to10" format="2">
	<advance width="10"/>
	<outline>
		<contour>
			<point x="-5" y="0" type="line"/>
			<point x="5" y="100" type="line"/>
			<point x="5" y="100" type="line"/>
			<point x="-5" y="0" type="line"/>
		</contour>
	</outline>
</glyph>
<glyph name="to105" format="2">
	<advance width="25"/>
	<outline>
		<contour>
			<point x="-14.499" y="0.048" type="line"/>
			<point x="10.501" y="1050.048" type="line"/>
			<point x="14.499" y="1049.952" type="line"/>
			<point x="-10.501" y="-0.048" type="line"/>
		</contour>
	</outline>
</glyph>
<glyph name="to106" format="2">
	<advance width="25"/>
	<outline>
		<contour>
			<point x="-14.499" y="0.047" type="line"/>
			<point x="10.501" y="1060.047" type="line"/>
			<point x="14.499" y="1059.953" type="line"/>
			<point x="-10.501" y="-0.047" type="line"/>
		</contour>
	</outline>
</glyph>
<glyph name="to109" format="2">
	<advance width="25"/>
	<outline>
		<contour>
			<point x="-14.499" y="0.046" type="line"/>
			<point x="10.501" y="1090.046" type="line"/>
			<point x="14.499" y="1089.954" type="line"/>
			<point x="-10.501" y="-0.046" type="line"/>
		</contour>
	</outline>
</glyph>
<glyph name="to113" format="2">
	<advance width="10"/>
	<outline>
		<contour>
			<point x="-5" y="0" type="line"/>
			<point x="5" y="1130" type="line"/>
			<point x="5" y="1130" type="line"/>
			<point x="-5" y="0" type="line"/>
		</contour>
	</outline>
</glyph>
<glyph name="to114" format="2">
	<advance width="25"/>
	<outline>
		<contour>
			<point x="-14.5" y="0.044" type="line"/>
			<point x="10.5" y="1140.044" type="line"/>
			<point x="14.5" y="1139.956" type="line"/>
			<point x="-10.5" y="-0.044" type="line"/>
		</contour>
	</outline>
</glyph>
<glyph name="to117" format="2">
	<advance width="10"/>
	<outline>
		<contour>
			<point x="-5" y="0" type="line"/>
			<point x="5" y="1170" type="line"/>
			<point x="5" y="1170" type="line"/>
			<point x="-5" y="0" type="line"/>
		</contour>
	</outline>
</glyph>
<glyph name="to118" format="2">
	<advance width="25"/>
	<outline>
		<contour>
			<point x="-14.999" y="0.053" type="line"/>
			<point x="10.001" y="1180.053" type="line"/>
			<point x="14.999" y="1179.947" type="line"/>
			<point x="-10.001" y="-0.053" type="line"/>
		</contour>
	</outline>
</glyph>
<glyph name="to12" format="2">
	<advance width="25"/>
	<outline>
		<contour>
			<point x="-14.947" y="0.51" type="line"/>
			<point x="10.053" y="120.51" type="line"/>
			<point x="14.947" y="119.49" type="line"/>
			<point x="-10.053" y="-0.51" type="line"/>
		</contour>
	</outline>
</glyph>
<glyph name="to123" format="2">
	<advance width="10"/>
	<outline>
		<contour>
			<point x="-5" y="0" type="line"/>
			<point x="5" y="1230" type="line"/>
			<point x="5" y="1230" type="line"/>
			<point x="-5" y="0" type="line"/>
		</contour>
	</outline>
</glyph>
<glyph name="to124" format="2">
	<advance width="25"/>
	<outline>
		<contour>
			<point x="-14.5" y="0.04" type="line"/>
			<point x="10.5" y="1240.04" type="line"/>
			<point x="14.5" y="1239.96" type="line"/>
			<point x="-10.5" y="-0.04" type="line"/>
		</contour>
	</outline>
</glyph>
<glyph name="to125" format="2">
	<advance width="25"/>
	<outline>
		<contour>
			<point x="-14" y="0.05" type="line"/>
			<point x="10" y="1250.05" type="line"/>
			<point x="14" y="1249.95" type="line"/>
			<point x="-10" y="-0.05" type="line"/>
		</contour>
	</outline>
</glyph>
<glyph name="to127" format="2">
	<advance width="25"/>
	<outline>
		<contour>
			<point x="-14.5" y="0.039" type="line"/>
			<point x="10.5" y="1270.039" type="line"/>
			<point x="14.5" y="1269.961" type="line"/>
			<point x="-10.5" y="-0.039" type="line"/>
		</contour>
	</outline>
</glyph>
<glyph name="to13" format="2">
	<advance width="25"/>
	<outline>
		<contour>
			<point x="-14.464" y="0.378" type="line"/>
			<point x="10.536" y="130.378" type="line"/>
			<point x="14.464" y="129.622" type="line"/>
			<point x="-10.536" y="-0.378" type="line"/>
		</contour>
	</outline>
</glyph>
<glyph name="to14" format="2">
	<advance width="25"/>
	<outline>
		<contour>
			<point x="-14.469" y="0.352" type="line"/>
			<point x="10.531" y="140.352" type="line"/>
			<point x="14.469" y="139.648" type="line"/>
			<point x="-10.531" y="-0.352" type="line"/>
		</contour>
	</outline>
</glyph>
<glyph name="to15" format="2">
	<advance width="10"/>
	<outline>
		<contour>
			<point x="-5" y="0" type="line"/>
			<point x="5" y="150" type="line"/>
			<point x="5" y="150" type="line"/>
			<point x="-5" y="0" type="line"/>
		</contour>
	</outline>
</glyph>
<glyph name="to18" format="2">
	<advance width="25"/>
	<outline>
		<contour>
			<point x="-14.481" y="0.275" type="line"/>
			<point x="10.519" y="180.275" type="line"/>
			<point x="14.481" y="179.725" type="line"/>
			<point x="-10.519" y="-0.275" type="line"/>
		</contour>
	</outline>
</glyph>
<glyph name="to2" format="2">
	<advance width="25"/>
	<outline>
		<contour>
			<point x="-13.749" y="1.562" type="line"/>
			<point x="11.251" y="21.562" type="line"/>
			<point x="13.749" y="18.438" type="line"/>
			<point x="-11.251" y="-1.562" type="line"/>
		</contour>
	</outline>
</glyph>
<glyph name="to22" format="2">
	<advance width="25"/>
	<outline>
		<contour>
			<point x="-14.984" y="0.282" type="line"/>
			<point x="10.016" y="220.282" type="line"/>
			<point x="14.984" y="219.718" type="line"/>
			<point x="-10.016" y="-0.282" type="line"/>
		</contour>
	</outline>
</glyph>
<glyph name="to23" format="2">
	<advance width="25"/>
	<outline>
		<contour>
			<point x="-14.985" y="0.27" type="line"/>
			<point x="10.015" y="230.27" type="line"/>
			<point x="14.985" y="229.73" type="line"/>
			<point x="-10.015" y="-0.27" type="line"/>
		</contour>
	</outline>
</glyph>
<glyph name="to24" format="2">
	<advance width="25"/>
	<outline>
		<contour>
			<point x="-14.489" y="0.207" type="line"/>
			<point x="10.511" y="240.207" type="line"/>
			<point x="14.489" y="239.793" type="line"/>
			<point x="-10.511" y="-0.207" type="line"/>
		</contour>
	</outline>
</glyph>
<glyph name="to26" format="2">
	<advance width="25"/>
	<outline>
		<contour>
			<point x="-14.491" y="0.191" type="line"/>
			<point x="10.509" y="260.191" type="line"/>
			<point x="14.491" y="259.809" type="line"/>
			<point x="-10.509" y="-0.191" type="line"/>
		</contour>
	</outline>
</glyph>
<glyph name="to28" format="2">
	<advance width="25"/>
	<outline>
		<contour>
			<point x="-14.99" y="0.222" type="line"/>
			<point x="10.01" y="280.222" type="line"/>
			<point x="14.99" y="279.778" type="line"/>
			<point x="-10.01" y="-0.222" type="line"/>
		</contour>
	</outline>
</glyph>
<glyph name="to29" format="2">
	<advance width="25"/>
	<outline>
		<contour>
			<point x="-14.493" y="0.172" type="line"/>
			<point x="10.507" y="290.172" type="line"/>
			<point x="14.493" y="289.828" type="line"/>
			<point x="-10.507" y="-0.172" type="line"/>
		</contour>
	</outline>
</glyph>
<glyph name="to3" format="2">
	<advance width="25"/>
	<outline>
		<contour>
			<point x="-14.421" y="1.6" type="line"/>
			<point x="10.579" y="31.6" type="line"/>
			<point x="14.421" y="28.4" type="line"/>
			<point x="-10.579" y="-1.6" type="line"/>
		</contour>
	</outline>
</glyph>
<glyph name="to30" format="2">
	<advance width="10"/>
	<outline>
		<contour>
			<point x="-5" y="0" type="line"/>
			<point x="5" y="300" type="line"/>
			<point x="5" y="300" type="line"/>
			<point x="-5" y="0" type="line"/>
		</contour>
	</outline>
</glyph>
<glyph name="to31" format="2">
	<advance width="25"/>
	<outline>
		<contour>
			<point x="-14.494" y="0.161" type="line"/>
			<point x="10.506" y="310.161" type="line"/>
			<point x="14.494" y="309.839" type="line"/>
			<point x="-10.506" y="-0.161" type="line"/>
		</contour>
	</outline>
</glyph>
<glyph name="to33" format="2">
	<advance width="25"/>
	<outline>
		<contour>
			<point x="-14.494" y="0.151" type="line"/>
			<point x="10.506" y="330.151" type="line"/>
			<point x="14.494" y="329.849" type="line"/>
			<point x="-10.506" y="-0.151" type="line"/>
		</contour>
	</outline>
</glyph>
<glyph name="to34" format="2">
	<advance width="25"/>
	<outline>
		<contour>
			<point x="-14.495" y="0.147" type="line"/>
			<point x="10.505" y="340.147" type="line"/>
			<point x="14.495" y="339.853" type="line"/>
			<point x="-10.505" y="-0.147" type="line"/>
		</contour>
	</outline>
</glyph>
<glyph name="to35" format="2">
	<advance width="25"/>
	<outline>
		<contour>
			<point x="-14.495" y="0.142" type="line"/>
			<point x="10.505" y="350.142" type="line"/>
			<point x="14.495" y="349.858" type="line"/>
			<point x="-10.505" y="-0.142" type="line"/>
		</contour>
	</outline>
</glyph>
<glyph name="to36" format="2">
	<advance width="25"/>
	<outline>
		<contour>
			<point x="-14.495" y="0.139" type="line"/>
			<point x="10.505" y="360.139" type="line"/>
			<point x="14.495" y="359.861" type="line"/>
			<point x="-10.505" y="-0.139" type="line"/>
		</contour>
	</outline>
</glyph>
<glyph name="to37" format="2">
	<advance width="25"/>
	<outline>
		<contour>
			<point x="-14.495" y="0.135" type="line"/>
			<point x="10.505" y="370.135" type="line"/>
			<point x="14.495" y="369.865" type="line"/>
			<point x="-10.505" y="-0.135" type="line"/>
		</contour>
	</outline>
</glyph>
<glyph name="to38" format="2">
	<advance width="25"/>
	<outline>
		<contour>
			<point x="-14.995" y="0.164" type="line"/>
			<point x="10.005" y="380.164" type="line"/>
			<point x="14.995" y="379.836" type="line"/>
			<point x="-10.005" y="-0.164" type="line"/>
		</contour>
	</outline>
</glyph>
<glyph name="to39" format="2">
	<advance width="25"/>
	<outline>
		<contour>
			<point x="-14.496" y="0.128" type="line"/>
			<point x="10.504" y="390.128" type="line"/>
			<point x="14.496" y="389.872" type="line"/>
			<point x="-10.504" y="-0.128" type="line"/>
		</contour>
	</outline>
</glyph>
<glyph name="to4" format="2">
	<advance width="25"/>
	<outline>
		<contour>
			<point x="-14.62" y="1.325" type="line"/>
			<point x="10.38" y="41.325" type="line"/>
			<point x="14.62" y="38.675" type="line"/>
			<point x="-10.38" y="-1.325" type="line"/>
		</contour>
	</outline>
</glyph>
<glyph name="to41" format="2">
	<advance width="25"/>
	<outline>
		<contour>
			<point x="-14.496" y="0.122" type="line"/>
			<point x="10.504" y="410.122" type="line"/>
			<point x="14.496" y="409.878" type="line"/>
			<point x="-10.504" y="-0.122" type="line"/>
		</contour>
	</outline>
</glyph>
<glyph name="to43" format="2">
	<advance width="25"/>
	<outline>
		<contour>
			<point x="-14.497" y="0.116" type="line"/>
			<point x="10.503" y="430.116" type="line"/>
			<point x="14.497" y="429.884" type="line"/>
			<point x="-10.503" y="-0.116" type="line"/>
		</contour>
	</outline>
</glyph>
<glyph name="to46" format="2">
	<advance width="25"/>
	<outline>
		<contour>
			<point x="-14.996" y="0.136" type="line"/>
			<point x="10.004" y="460.136" type="line"/>
			<point x="14.996" y="459.864" type="line"/>
			<point x="-10.004" y="-0.136" type="line"/>
		</contour>
	</outline>
</glyph>
<glyph name="to48" format="2">
	<advance width="25"/>
	<outline>
		<contour>
			<point x="-14.997" y="0.13" type="line"/>
			<point x="10.003" y="480.13" type="line"/>
			<point x="14.997" y="479.87" type="line"/>
			<point x="-10.003" y="-0.13" type="line"/>
		</contour>
	</outline>
</glyph>
<glyph name="to49" format="2">
	<advance width="25"/>
	<outline>
		<contour>
			<point x="-14.497" y="0.102" type="line"/>
			<point x="10.503" y="490.102" type="line"/>
			<point x="14.497" y="489.898" type="line"/>
			<point x="-10.503" y="-0.102" type="line"/>
		</contour>
	</outline>
</glyph>
<glyph name="to5" format="2">
	<advance width="25"/>
	<outline>
		<contour>
			<point x="-14.736" y="1.118" type="line"/>
			<point x="10.264" y="51.118" type="line"/>
			<point x="14.736" y="48.882" type="line"/>
			<point x="-10.264" y="-1.118" type="line"/>
		</contour>
	</outline>
</glyph>
<glyph name="to51" format="2">
	<advance width="25"/>
	<outline>
		<contour>
			<point x="-14.997" y="0.122" type="line"/>
			<point x="10.003" y="510.122" type="line"/>
			<point x="14.997" y="509.878" type="line"/>
			<point x="-10.003" y="-0.122" type="line"/>
		</contour>
	</outline>
</glyph>
<glyph name="to52" format="2">
	<advance width="25"/>
	<outline>
		<contour>
			<point x="-14.498" y="0.096" type="line"/>
			<point x="10.502" y="520.096" type="line"/>
			<point x="14.498" y="519.904" type="line"/>
			<point x="-10.502" y="-0.096" type="line"/>
		</contour>
	</outline>
</glyph>
<glyph name="to53" format="2">
	<advance width="25"/>
	<outline>
		<contour>
			<point x="-14.498" y="0.094" type="line"/>
			<point x="10.502" y="530.094" type="line"/>
			<point x="14.498" y="529.906" type="line"/>
			<point x="-10.502" y="-0.094" type="line"/>
		</contour>
	</outline>
</glyph>
<glyph name="to55" format="2">
	<advance width="25"/>
	<outline>
		<contour>
			<point x="-14.997" y="0.114" type="line"/>
			<point x="10.003" y="550.114" type="line"/>
			<point x="14.997" y="549.886" type="line"/>
			<point x="-10.003" y="-0.114" type="line"/>
		</contour>
	</outline>
</glyph>
<glyph name="to59" format="2">
	<advance width="25"/>
	<outline>
		<contour>
			<point x="-14.498" y="0.085" type="line"/>
			<point x="10.502" y="590.085" type="line"/>
			<point x="14.498" y="589.915" type="line"/>
			<point x="-10.502" y="-0.085" type="line"/>
		</contour>
	</outline>
</glyph>
<glyph name="to61" format="2">
	<advance width="25"/>
	<outline>
		<contour>
			<point x="-14.498" y="0.082" type="line"/>
			<point x="10.502" y="610.082" type="line"/>
			<point x="14.498" y="609.918" type="line"/>
			<point x="-10.502" y="-0.082" type="line"/>
		</contour>
	</outline>
</glyph>
<glyph name="to65" format="2">
	<advance width="25"/>
	<outline>
		<contour>
			<point x="-14.998" y="0.096" type="line"/>
			<point x="10.002" y="650.096" type="line"/>
			<point x="14.998" y="649.904" type="line"/>
			<point x="-10.002" y="-0.096" type="line"/>
		</contour>
	</outline>
</glyph>
<glyph name="to68" format="2">
	<advance width="25"/>
	<outline>
		<contour>
			<point x="-14.499" y="0.073" type="line"/>
			<point x="10.501" y="680.073" type="line"/>
			<point x="14.499" y="679.927" type="line"/>
			<point x="-10.501" y="-0.073" type="line"/>
		</contour>
	</outline>
</glyph>
<glyph name="to69" format="2">
	<advance width="25"/>
	<outline>
		<contour>
			<point x="-14.499" y="0.072" type="line"/>
			<point x="10.501" y="690.072" type="line"/>
			<point x="14.499" y="689.928" type="line"/>
			<point x="-10.501" y="-0.072" type="line"/>
		</contour>
	</outline>
</glyph>
<glyph name="to7" format="2">
	<advance width="25"/>
	<outline>
		<contour>
			<point x="-14.383" y="0.673" type="line"/>
			<point x="10.617" y="70.673" type="line"/>
			<point x="14.383" y="69.327" type="line"/>
			<point x="-10.617" y="-0.673" type="line"/>
		</contour>
	</outline>
</glyph>
<glyph name="to70" format="2">
	<advance width="10"/>
	<outline>
		<contour>
			<point x="-5" y="0" type="line"/>
			<point x="5" y="700" type="line"/>
			<point x="5" y="700" type="line"/>
			<point x="-5" y="0" type="line"/>
		</contour>
	</outline>
</glyph>
<glyph name="to72" format="2">
	<advance width="25"/>
	<outline>
		<contour>
			<point x="-14.499" y="0.069" type="line"/>
			<point x="10.501" y="720.069" type="line"/>
			<point x="14.499" y="719.931" type="line"/>
			<point x="-10.501" y="-0.069" type="line"/>
		</contour>
	</outline>
</glyph>
<glyph name="to73" format="2">
	<advance width="25"/>
	<outline>
		<contour>
			<point x="-14.499" y="0.068" type="line"/>
			<point x="10.501" y="730.068" type="line"/>
			<point x="14.499" y="729.932" type="line"/>
			<point x="-10.501" y="-0.068" type="line"/>
		</contour>
	</outline>
</glyph>
<glyph name="to75" format="2">
	<advance width="25"/>
	<outline>
		<contour>
			<point x="-14.499" y="0.067" type="line"/>
			<point x="10.501" y="750.067" type="line"/>
			<point x="14.499" y="749.933" type="line"/>
			<point x="-10.501" y="-0.067" type="line"/>
		</contour>
	</outline>
</glyph>
<glyph name="to76" format="2">
	<advance width="25"/>
	<outline>
		<contour>
			<point x="-14.499" y="0.066" type="line"/>
			<point x="10.501" y="760.066" type="line"/>
			<point x="14.499" y="759.934" type="line"/>
			<point x="-10.501" y="-0.066" type="line"/>
		</contour>
	</outline>
</glyph>
<glyph name="to77" format="2">
	<advance width="25"/>
	<outline>
		<contour>
			<point x="-14.999" y="0.081" type="line"/>
			<point x="10.001" y="770.081" type="line"/>
			<point x="14.999" y="769.919" type="line"/>
			<point x="-10.001" y="-0.081" type="line"/>
		</contour>
	</outline>
</glyph>
<glyph name="to78" format="2">
	<advance width="25"/>
	<outline>
		<contour>
			<point x="-14.499" y="0.064" type="line"/>
			<point x="10.501" y="780.064" type="line"/>
			<point x="14.499" y="779.936" type="line"/>
			<point x="-10.501" y="-0.064" type="line"/>
		</contour>
	</outline>
</glyph>
<glyph name="to80" format="2">
	<advance width="25"/>
	<outline>
		<contour>
			<point x="-14.499" y="0.062" type="line"/>
			<point x="10.501" y="800.062" type="line"/>
			<point x="14.499" y="799.938" type="line"/>
			<point x="-10.501" y="-0.062" type="line"/>
		</contour>
	</outline>
</glyph>
<glyph name="to82" format="2">
	<advance width="25"/>
	<outline>
		<contour>
			<point x="-14.999" y="0.076" type="line"/>
			<point x="10.001" y="820.076" type="line"/>
			<point x="14.999" y="819.924" type="line"/>
			<point x="-10.001" y="-0.076" type="line"/>
		</contour>
	</outline>
</glyph>
<glyph name="to83" format="2">
	<advance width="25"/>
	<outline>
		<contour>
			<point x="-14.499" y="0.06" type="line"/>
			<point x="10.501" y="830.06" type="line"/>
			<point x="14.499" y="829.94" type="line"/>
			<point x="-10.501" y="-0.06" type="line"/>
		</contour>
	</outline>
</glyph>
<glyph name="to84" format="2">
	<advance width="25"/>
	<outline>
		<contour>
			<point x="-14.999" y="0.074" type="line"/>
			<point x="10.001" y="840.074" type="line"/>
			<point x="14.999" y="839.926" type="line"/>
			<point x="-10.001" y="-0.074" type="line"/>
		</contour>
	</outline>
</glyph>
<glyph name="to85" format="2">
	<advance width="25"/>
	<outline>
		<contour>
			<point x="-14.499" y="0.059" type="line"/>
			<point x="10.501" y="850.059" type="line"/>
			<point x="14.499" y="849.941" type="line"/>
			<point x="-10.501" y="-0.059" type="line"/>
		</contour>
	</outline>
</glyph>
<glyph name="to87" format="2">
	<advance width="25"/>
	<outline>
		<contour>
			<point x="-14.499" y="0.057" type="line"/>
			<point x="10.501" y="870.057" type="line"/>
			<point x="14.499" y="869.943" type="line"/>
			<point x="-10.501" y="-0.057" type="line"/>
		</contour>
	</outline>
</glyph>
<glyph name="to89" format="2">
	<advance width="25"/>
	<outline>
		<contour>
			<point x="-14.499" y="0.056" type="line"/>
			<point x="10.501" y="890.056" type="line"/>
			<point x="14.499" y="889.944" type="line"/>
			<point x="-10.501" y="-0.056" type="line"/>
		</contour>
	</outline>
</glyph>
<glyph name="to9" format="2">
	<advance width="25"/>
	<outline>
		<contour>
			<point x="-14.909" y="0.669" type="line"/>
			<point x="10.091" y="90.669" type="line"/>
			<point x="14.909" y="89.331" type="line"/>
			<point x="-10.091" y="-0.669" type="line"/>
		</contour>
	</outline>
</glyph>
<glyph name="to90" format="2">
	<advance width="25"/>
	<outline>
		<contour>
			<point x="-14.999" y="0.069" type="line"/>
			<point x="10.001" y="900.069" type="line"/>
			<point x="14.999" y="899.931" type="line"/>
			<point x="-10.001" y="-0.069" type="line"/>
		</contour>
	</outline>
</glyph>
<glyph name="to92" format="2">
	<advance width="10"/>
	<outline>
		<contour>
			<point x="-5" y="0" type="line"/>
			<point x="5" y="920" type="line"/>
			<point x="5" y="920" type="line"/>
			<point x="-5" y="0" type="line"/>
		</contour>
	</outline>
</glyph>
<glyph name="to94" format="2">
	<advance width="25"/>
	<outline>
		<contour>
			<point x="-14.499" y="0.053" type="line"/>
			<point x="10.501" y="940.053" type="line"/>
			<point x="14.499" y="939.947" type="line"/>
			<point x="-10.501" y="-0.053" type="line"/>
		</contour>
	</outline>
</glyph>
<glyph name="to95" format="2">
	<advance width="10"/>
	<outline>
		<contour>
			<point x="-5" y="0" type="line"/>
			<point x="5" y="950" type="line"/>
			<point x="5" y="950" type="line"/>
			<point x="-5" y="0" type="line"/>
		</contour>
	</outline>
</glyph>
<glyph name="to97" format="2">
	<advance width="25"/>
	<outline>
		<contour>
			<point x="-14.499" y="0.052" type="line"/>
			<point x="10.501" y="970.052" type="line"/>
			<point x="14.499" y="969.948" type="line"/>
			<point x="-10.501" y="-0.052" type="line"/>
		</contour>
	</outline>
</glyph>
<glyph name="to98" format="2">
	<advance width="25"/>
	<outline>
		<contour>
			<point x="-14.499" y="0.051" type="line"/>
			<point x="10.501" y="980.051" type="line"/>
			<point x="14.499" y="979.949" type="line"/>
			<point x="-10.501" y="-0.051" type="line"/>
		</contour>
	</outline>
</glyph>
<glyph name="to99" format="2">
	<advance width="25"/>
	<outline>
		<contour>
			<point x="-14.499" y="0.05" type="line"/>
			<point x="10.501" y="990.05" type="line"/>
			<point x="14.499" y="989.95" type="line"/>
			<point x="-10.501" y="-0.05" type="line"/>
		</contour>
	</outline>
</glyph>
